<svg width="247" height="94" viewBox="0 0 247 94" fill="none" xmlns="http://www.w3.org/2000/svg">
<g clip-path="url(#clip0_342_256)">
<path d="M74.7742 37.6666C74.7742 60.9672 48.8882 85.2339 40.1957 92.7287C39.3861 93.3367 38.4002 93.6654 37.3871 93.6654C36.374 93.6654 35.3881 93.3367 34.5785 92.7287C25.886 85.2339 0 60.9672 0 37.6666C0 27.7653 3.93898 18.2693 10.9504 11.268C17.9617 4.26657 27.4715 0.333252 37.3871 0.333252C47.3026 0.333252 56.8125 4.26657 63.8238 11.268C70.8351 18.2693 74.7742 27.7653 74.7742 37.6666Z" fill="#159A9C"/>
<mask id="mask0_342_256" style="mask-type:luminance" maskUnits="userSpaceOnUse" x="3" y="1" width="69" height="70">
<path d="M37.3021 1.79517L3.06445 35.9835L37.3021 70.172L71.5398 35.9835L37.3021 1.79517Z" fill="white"/>
</mask>
<g mask="url(#mask0_342_256)">
<path d="M27.3161 28.8607C28.8918 27.2875 28.8918 24.7363 27.3161 23.1628C25.7403 21.5893 23.1854 21.5893 21.6099 23.1628C20.0342 24.7363 20.0342 27.2875 21.6099 28.8607C23.1854 30.4343 25.7403 30.4343 27.3161 28.8607Z" fill="#E9E9E9" stroke="#E9E9E9" stroke-width="5" stroke-linecap="round" stroke-linejoin="round"/>
<path d="M43.0082 24.5874C44.584 23.0139 44.584 20.4628 43.0082 18.8893C41.4324 17.3159 38.8778 17.3159 37.3021 18.8893C35.7263 20.4628 35.7263 23.0139 37.3021 24.5874C38.8778 26.1609 41.4324 26.1609 43.0082 24.5874Z" fill="#E9E9E9" stroke="#E9E9E9" stroke-width="5" stroke-linecap="round" stroke-linejoin="round"/>
<path d="M57.2741 33.1345C58.8496 31.561 58.8496 29.0098 57.2741 27.4363C55.6984 25.8627 53.1435 25.8627 51.5677 27.4363C49.9919 29.0098 49.9919 31.561 51.5677 33.1345C53.1435 34.708 55.6984 34.708 57.2741 33.1345Z" fill="#E9E9E9" stroke="#E9E9E9" stroke-width="5" stroke-linecap="round" stroke-linejoin="round"/>
<path d="M30.1691 37.408C31.1059 36.4728 32.218 35.7308 33.4417 35.2246C34.6657 34.7182 35.9773 34.4578 37.3021 34.4578C38.6268 34.4578 39.9385 34.7182 41.1624 35.2246C42.3861 35.7308 43.4982 36.4728 44.4347 37.408L49.4277 42.3938C50.6207 43.5858 51.3467 45.1651 51.4742 46.8451C51.6017 48.5254 51.1224 50.1959 50.1231 51.5537C49.1237 52.9114 47.6702 53.8671 46.0264 54.2472C44.3823 54.6276 42.6564 54.4072 41.1609 53.6263C38.5882 52.2728 36.018 52.2707 33.4503 53.6189C31.9557 54.3996 30.2307 54.6202 28.5872 54.2408C26.944 53.8613 25.4908 52.9072 24.4912 51.5506C23.4912 50.1941 23.0107 48.5251 23.1363 46.8457C23.262 45.166 23.9855 43.587 25.1761 42.3938L30.1691 37.408Z" fill="#E9E9E9" stroke="#E9E9E9" stroke-width="5" stroke-linecap="round" stroke-linejoin="round"/>
</g>
<path d="M127.28 29.92V58H120.44V41.16L114.16 58H108.64L102.32 41.12V58H95.48V29.92H103.56L111.44 49.36L119.24 29.92H127.28ZM130.839 46.8C130.839 44.5067 131.265 42.4933 132.119 40.76C132.999 39.0267 134.185 37.6933 135.679 36.76C137.172 35.8267 138.839 35.36 140.679 35.36C142.252 35.36 143.625 35.68 144.799 36.32C145.999 36.96 146.919 37.8 147.559 38.84V35.68H154.399V58H147.559V54.84C146.892 55.88 145.959 56.72 144.759 57.36C143.585 58 142.212 58.32 140.639 58.32C138.825 58.32 137.172 57.8533 135.679 56.92C134.185 55.96 132.999 54.6133 132.119 52.88C131.265 51.12 130.839 49.0933 130.839 46.8ZM147.559 46.84C147.559 45.1333 147.079 43.7867 146.119 42.8C145.185 41.8133 144.039 41.32 142.679 41.32C141.319 41.32 140.159 41.8133 139.199 42.8C138.265 43.76 137.799 45.0933 137.799 46.8C137.799 48.5067 138.265 49.8667 139.199 50.88C140.159 51.8667 141.319 52.36 142.679 52.36C144.039 52.36 145.185 51.8667 146.119 50.88C147.079 49.8933 147.559 48.5467 147.559 46.84ZM166.187 38.84C166.854 37.8 167.774 36.96 168.947 36.32C170.121 35.68 171.494 35.36 173.067 35.36C174.907 35.36 176.574 35.8267 178.067 36.76C179.561 37.6933 180.734 39.0267 181.587 40.76C182.467 42.4933 182.907 44.5067 182.907 46.8C182.907 49.0933 182.467 51.12 181.587 52.88C180.734 54.6133 179.561 55.96 178.067 56.92C176.574 57.8533 174.907 58.32 173.067 58.32C171.521 58.32 170.147 58 168.947 57.36C167.774 56.72 166.854 55.8933 166.187 54.88V68.64H159.347V35.68H166.187V38.84ZM175.947 46.8C175.947 45.0933 175.467 43.76 174.507 42.8C173.574 41.8133 172.414 41.32 171.027 41.32C169.667 41.32 168.507 41.8133 167.547 42.8C166.614 43.7867 166.147 45.1333 166.147 46.84C166.147 48.5467 166.614 49.8933 167.547 50.88C168.507 51.8667 169.667 52.36 171.027 52.36C172.387 52.36 173.547 51.8667 174.507 50.88C175.467 49.8667 175.947 48.5067 175.947 46.8ZM207.536 46.48C207.536 47.12 207.496 47.7867 207.416 48.48H191.936C192.042 49.8667 192.482 50.9333 193.256 51.68C194.056 52.4 195.029 52.76 196.176 52.76C197.882 52.76 199.069 52.04 199.736 50.6H207.016C206.642 52.0667 205.962 53.3867 204.976 54.56C204.016 55.7333 202.802 56.6533 201.336 57.32C199.869 57.9867 198.229 58.32 196.416 58.32C194.229 58.32 192.282 57.8533 190.576 56.92C188.869 55.9867 187.536 54.6533 186.576 52.92C185.616 51.1867 185.136 49.16 185.136 46.84C185.136 44.52 185.602 42.4933 186.536 40.76C187.496 39.0267 188.829 37.6933 190.536 36.76C192.242 35.8267 194.202 35.36 196.416 35.36C198.576 35.36 200.496 35.8133 202.176 36.72C203.856 37.6267 205.162 38.92 206.096 40.6C207.056 42.28 207.536 44.24 207.536 46.48ZM200.536 44.68C200.536 43.5067 200.136 42.5733 199.336 41.88C198.536 41.1867 197.536 40.84 196.336 40.84C195.189 40.84 194.216 41.1733 193.416 41.84C192.642 42.5067 192.162 43.4533 191.976 44.68H200.536ZM223.584 52.2V58H220.104C217.624 58 215.691 57.4 214.304 56.2C212.917 54.9733 212.224 52.9867 212.224 50.24V41.36H209.504V35.68H212.224V30.24H219.064V35.68H223.544V41.36H219.064V50.32C219.064 50.9867 219.224 51.4667 219.544 51.76C219.864 52.0533 220.397 52.2 221.144 52.2H223.584ZM236.474 58.32C234.527 58.32 232.794 57.9867 231.274 57.32C229.754 56.6533 228.554 55.7467 227.674 54.6C226.794 53.4267 226.301 52.12 226.194 50.68H232.954C233.034 51.4533 233.394 52.08 234.034 52.56C234.674 53.04 235.461 53.28 236.394 53.28C237.247 53.28 237.901 53.12 238.354 52.8C238.834 52.4533 239.074 52.0133 239.074 51.48C239.074 50.84 238.741 50.3733 238.074 50.08C237.407 49.76 236.327 49.4133 234.834 49.04C233.234 48.6667 231.901 48.28 230.834 47.88C229.767 47.4533 228.847 46.8 228.074 45.92C227.301 45.0133 226.914 43.8 226.914 42.28C226.914 41 227.261 39.84 227.954 38.8C228.674 37.7333 229.714 36.8933 231.074 36.28C232.461 35.6667 234.101 35.36 235.994 35.36C238.794 35.36 240.994 36.0533 242.594 37.44C244.221 38.8267 245.154 40.6667 245.394 42.96H239.074C238.967 42.1867 238.621 41.5733 238.034 41.12C237.474 40.6667 236.727 40.44 235.794 40.44C234.994 40.44 234.381 40.6 233.954 40.92C233.527 41.2133 233.314 41.6267 233.314 42.16C233.314 42.8 233.647 43.28 234.314 43.6C235.007 43.92 236.074 44.24 237.514 44.56C239.167 44.9867 240.514 45.4133 241.554 45.84C242.594 46.24 243.501 46.9067 244.274 47.84C245.074 48.7467 245.487 49.9733 245.514 51.52C245.514 52.8267 245.141 54 244.394 55.04C243.674 56.0533 242.621 56.8533 241.234 57.44C239.874 58.0267 238.287 58.32 236.474 58.32Z" fill="#111111"/>
</g>
<defs>
<clipPath id="clip0_342_256">
<rect width="247" height="94" fill="white"/>
</clipPath>
</defs>
</svg>
