<svg width="761" height="484" viewBox="0 0 761 484" fill="none" xmlns="http://www.w3.org/2000/svg">
<mask id="mask0_644_593" style="mask-type:luminance" maskUnits="userSpaceOnUse" x="-12" y="-32" width="773" height="516">
<path d="M-12 -32H761V483.333H-12V-32Z" fill="white"/>
</mask>
<g mask="url(#mask0_644_593)">
<path d="M344.558 366.951C350.333 372.144 356.326 377.469 363.681 379.968C369.622 381.987 376.046 382.012 382.171 383.386C394.071 386.054 404.662 394.08 410.449 404.815C404.099 398.245 397.174 391.48 388.289 389.346C382.078 387.857 375.515 388.806 369.234 387.653C362.912 386.49 357.11 383.216 352.247 379.011C347.385 374.805 343.394 369.688 339.741 364.398L344.558 366.951Z" fill="#8B2C20"/>
</g>
<mask id="mask1_644_593" style="mask-type:luminance" maskUnits="userSpaceOnUse" x="-12" y="-32" width="773" height="516">
<path d="M-12 -32H761V483.333H-12V-32Z" fill="white"/>
</mask>
<g mask="url(#mask1_644_593)">
<path d="M286.335 374.983C285.847 374.983 275.286 398.867 291.535 412.84L279.649 425.394C278.315 426.803 278.599 429.078 280.237 430.116C281.276 430.775 282.606 430.752 283.622 430.06L307.945 413.49L318.343 395.618L308.757 370.596L286.335 374.983Z" fill="#F24E37"/>
</g>
<mask id="mask2_644_593" style="mask-type:luminance" maskUnits="userSpaceOnUse" x="-12" y="-32" width="773" height="516">
<path d="M-12 -32H761V483.333H-12V-32Z" fill="white"/>
</mask>
<g mask="url(#mask2_644_593)">
<mask id="mask3_644_593" style="mask-type:luminance" maskUnits="userSpaceOnUse" x="278" y="370" width="41" height="61">
<path d="M278.805 370.596H318.343V430.595H278.805V370.596Z" fill="white"/>
</mask>
<g mask="url(#mask3_644_593)">
<path d="M286.335 374.983C285.847 374.983 275.286 398.867 291.535 412.84L279.649 425.394C278.315 426.803 278.599 429.078 280.237 430.116C281.276 430.775 282.606 430.752 283.622 430.06L307.945 413.49L318.343 395.618L308.757 370.596L286.335 374.983Z" fill="#F24E37"/>
</g>
</g>
<mask id="mask4_644_593" style="mask-type:luminance" maskUnits="userSpaceOnUse" x="-12" y="-32" width="773" height="516">
<path d="M-12 -32H761V483.333H-12V-32Z" fill="white"/>
</mask>
<g mask="url(#mask4_644_593)">
<path d="M114.742 381.567C120.027 380.453 125.469 382.288 130.396 384.502C135.322 386.714 140.19 389.373 145.551 390.03C150.911 390.689 157.052 388.759 159.46 383.924L176.922 395.123C175.664 399.823 174.095 404.561 171.124 408.415C168.152 412.27 163.528 415.14 158.668 414.88C150.506 414.443 145.443 406.191 139.133 400.998C134.051 396.819 127.532 394.423 120.955 394.318C118.459 394.279 115.927 394.554 113.491 394.017C111.053 393.481 108.633 391.89 108.036 389.467C107.112 385.718 110.965 382.364 114.742 381.567Z" fill="#F24E37"/>
</g>
<mask id="mask5_644_593" style="mask-type:luminance" maskUnits="userSpaceOnUse" x="-12" y="-32" width="773" height="516">
<path d="M-12 -32H761V483.333H-12V-32Z" fill="white"/>
</mask>
<g mask="url(#mask5_644_593)">
<mask id="mask6_644_593" style="mask-type:luminance" maskUnits="userSpaceOnUse" x="149" y="383" width="28" height="30">
<path d="M149.752 383.925H176.922V412.446H149.752V383.925Z" fill="white"/>
</mask>
<g mask="url(#mask6_644_593)">
<path d="M166.801 412.446C163.711 409.589 160.795 406.545 158.115 403.339C154.902 399.494 151.592 394.94 149.751 390.014C153.813 389.5 157.669 387.518 159.46 383.924L176.921 395.123C175.664 399.823 174.094 404.561 171.123 408.415C169.924 409.971 168.446 411.351 166.801 412.446Z" fill="#F24E37"/>
</g>
</g>
<mask id="mask7_644_593" style="mask-type:luminance" maskUnits="userSpaceOnUse" x="-12" y="-32" width="773" height="516">
<path d="M-12 -32H761V483.333H-12V-32Z" fill="white"/>
</mask>
<g mask="url(#mask7_644_593)">
<path d="M345.064 402.973C339.983 410.136 331.769 415.062 323.111 416.145C320.627 416.444 318.102 416.434 315.598 416.073C316.184 416.424 316.68 416.866 317.082 417.381C319.184 420.031 318.793 424.493 316.618 427.317C314.031 430.708 309.826 432.336 305.848 433.8C302.395 435.078 298.952 436.346 295.5 437.624C294.119 438.139 292.655 438.654 291.212 438.407C291.171 438.397 291.14 438.397 291.099 438.386C289.625 438.078 288.295 436.562 288.749 435.14C289.079 434.079 290.192 433.491 291.19 433.017C296.252 430.615 301.323 428.203 306.373 425.812C301.395 418.938 299.025 410.218 299.808 401.777C300.437 395.16 303.002 388.77 307.043 383.483C293.335 379.887 278.72 379.979 264.961 383.421C264.93 383.421 264.899 383.431 264.867 383.443C251.645 386.75 239.225 393.14 229.145 402.323C221.993 408.828 215.51 416.856 206.265 419.68C204.77 420.133 203.245 420.443 201.709 420.598C194.855 421.298 187.744 419.195 181.776 415.588C160.74 402.89 154.216 375.475 137.426 357.511C134.85 354.758 132.046 352.243 129.047 349.966C128.161 349.285 127.254 348.627 126.326 347.987C126.254 347.936 126.171 347.885 126.099 347.832C120.008 343.627 113.268 340.308 106.29 337.805C102.744 336.536 98.9103 335.269 95.5297 333.507C94.0559 332.743 92.6645 331.888 91.4174 330.898C89.4385 329.321 87.841 327.405 86.8721 324.992C89.6859 326.559 92.5511 328.146 95.54 329.311C97.488 330.075 99.4772 330.661 101.549 330.95C102.693 331.115 103.868 331.166 105.043 331.105H105.053C107.248 330.981 109.423 330.465 111.35 329.507C111.691 329.343 112.01 329.168 112.329 328.971C112.938 328.6 113.515 328.188 114.041 327.713C114.69 327.148 115.267 326.498 115.772 325.777C114.236 326.343 112.639 326.745 111.01 326.961C110.804 326.992 110.598 327.024 110.392 327.044C110.267 327.065 110.134 327.074 110.01 327.085C106.692 327.435 103.291 327.085 100.096 326.076C97.8993 325.384 95.808 324.384 93.9116 323.096C87.6245 318.788 83.5843 311.357 83.4297 303.72C83.4091 302.886 83.4699 302.02 83.6049 301.174C83.9451 298.917 84.8314 296.721 86.4393 295.381C86.9546 294.928 87.5627 294.578 88.2429 294.341C90.1497 293.691 91.9327 294.084 93.6745 294.969C96.478 296.403 99.1165 299.102 101.879 300.783C107.857 304.451 115.411 303.328 122.41 303.503C134.674 303.843 146.754 308.739 155.762 317.046C163.409 324.075 169.119 333.578 178.467 338.104C185.414 341.473 193.33 341.555 201.142 341.102C202.874 340.999 204.595 340.865 206.306 340.741C222.868 339.535 251.078 339.226 273.825 339.288C292.511 339.329 307.507 339.618 309.352 339.844C315.814 340.607 322.142 342.462 327.883 345.523C328.089 345.637 328.294 345.75 328.502 345.863C338.211 351.203 346.116 360.046 349.548 370.559C350.331 372.96 350.867 375.455 351.156 377.969C352.155 386.709 350.155 395.811 345.064 402.973Z" fill="#F24E37"/>
</g>
<mask id="mask8_644_593" style="mask-type:luminance" maskUnits="userSpaceOnUse" x="-12" y="-32" width="773" height="516">
<path d="M-12 -32H761V483.333H-12V-32Z" fill="white"/>
</mask>
<g mask="url(#mask8_644_593)">
<g opacity="0.360001">
<mask id="mask9_644_593" style="mask-type:luminance" maskUnits="userSpaceOnUse" x="83" y="295" width="264" height="144">
<path d="M83.4258 295.382H346.107V438.407H83.4258V295.382Z" fill="white"/>
</mask>
<g mask="url(#mask9_644_593)">
<path d="M339.768 404.127C335.738 409.806 329.739 414.084 323.112 416.145C321.144 416.753 319.124 417.176 317.082 417.382C314.836 417.598 312.558 417.557 310.3 417.227C313.97 419.422 313.907 425.101 311.32 428.472C308.734 431.863 304.529 433.491 300.55 434.955C297.438 436.109 294.325 437.253 291.213 438.407C291.172 438.397 291.14 438.397 291.099 438.387C289.626 438.077 288.296 436.562 288.75 435.14C289.079 434.08 290.192 433.491 291.191 433.017C296.252 430.615 301.323 428.204 306.374 425.813C301.396 418.938 299.026 410.219 299.808 401.777C300.438 395.161 303.003 388.77 307.044 383.483C293.335 379.886 278.721 379.979 264.962 383.421C264.931 383.421 264.899 383.432 264.868 383.443C249.697 386.256 235.267 393.079 223.848 403.478C216.891 409.806 210.563 417.578 201.71 420.597C194.855 421.298 187.744 419.196 181.777 415.588C160.741 402.891 154.217 375.475 137.427 357.511C134.851 354.758 132.047 352.244 129.048 349.966C128.161 349.286 127.255 348.626 126.326 347.987C126.255 347.935 126.172 347.885 126.099 347.832C120.008 343.627 113.267 340.308 106.291 337.804C102.744 336.536 98.9113 335.268 95.5297 333.506C94.0569 332.743 92.6655 331.888 91.4184 330.898C92.985 331.455 94.5918 331.878 96.2522 332.104C99.1782 332.518 102.322 332.218 105.044 331.105H105.054C107.248 330.981 109.424 330.466 111.351 329.507C111.692 329.342 112.011 329.168 112.33 328.971C112.939 328.6 113.516 328.188 114.04 327.714C114.69 327.148 115.268 326.499 115.773 325.776C114.237 326.343 112.64 326.745 111.011 326.961C110.805 326.992 110.598 327.023 110.392 327.044C110.424 327.014 110.444 326.972 110.474 326.93C110.321 326.982 110.166 327.044 110.011 327.085C106.692 327.435 103.292 327.085 100.097 326.076C97.9002 325.384 95.809 324.385 93.9126 323.096C87.6245 318.788 83.5843 311.357 83.4307 303.72C83.4101 302.886 83.4709 302.02 83.6059 301.174C83.946 298.917 84.8314 296.722 86.4402 295.382C87.0896 295.536 87.7389 295.794 88.3779 296.124C91.1813 297.556 93.8188 300.257 96.582 301.937C102.56 305.606 110.115 304.482 117.113 304.658C129.377 304.998 141.457 309.893 150.464 318.201C158.113 325.23 163.823 334.733 173.17 339.258C180.118 342.627 188.032 342.71 195.844 342.256C197.577 342.153 199.298 342.019 201.008 341.896C217.571 340.69 245.781 340.381 268.528 340.442C287.214 340.484 302.21 340.772 304.055 340.999C310.516 341.762 316.846 343.617 322.586 346.678C322.792 346.791 322.998 346.905 323.205 347.018C332.914 352.358 340.819 361.2 344.251 371.713C345.033 374.114 345.57 376.609 345.858 379.123C346.859 387.863 344.858 396.964 339.768 404.127Z" fill="#F24E37"/>
</g>
</g>
</g>
<mask id="mask10_644_593" style="mask-type:luminance" maskUnits="userSpaceOnUse" x="-12" y="-32" width="773" height="516">
<path d="M-12 -32H761V483.333H-12V-32Z" fill="white"/>
</mask>
<g mask="url(#mask10_644_593)">
<mask id="mask11_644_593" style="mask-type:luminance" maskUnits="userSpaceOnUse" x="111" y="327" width="19" height="23">
<path d="M111.351 327.714H129.148V349.966H111.351V327.714Z" fill="white"/>
</mask>
<g mask="url(#mask11_644_593)">
<path d="M129.048 349.966L126.1 347.832C126.08 347.637 126.049 347.431 126.008 347.235C125.358 344.081 122.823 342.916 120.205 341.576C115.433 339.123 112.228 334.733 111.352 329.506C111.692 329.342 112.011 329.167 112.33 328.971C112.939 328.6 113.516 328.188 114.041 327.714C114.186 327.91 114.268 328.157 114.298 328.435C114.597 331.321 115.917 334.083 117.938 336.165C120.06 338.361 122.926 339.144 125.337 340.896C128.511 343.184 129.491 346.575 129.048 349.966Z" fill="#F24E37"/>
</g>
</g>
<mask id="mask12_644_593" style="mask-type:luminance" maskUnits="userSpaceOnUse" x="-12" y="-32" width="773" height="516">
<path d="M-12 -32H761V483.333H-12V-32Z" fill="white"/>
</mask>
<g mask="url(#mask12_644_593)">
<path d="M289.574 345.029C288.831 343.091 287.224 341.628 285.172 341.205C282.999 340.752 280.865 341.339 278.689 341.453C276.526 341.566 275.155 340.68 273.826 339.288C251.078 339.226 222.868 339.536 206.307 340.741C204.596 340.865 202.875 340.999 201.143 341.101C200.865 341.813 200.638 342.555 200.473 343.318C199.503 347.822 201.246 352.285 204.709 355.253C208.45 358.449 213.346 359.541 218.17 359.469C223.683 359.376 229.012 357.82 234.463 357.253C237.247 356.964 240.03 356.964 242.813 357.15C243.328 357.325 243.844 357.5 244.349 357.676C249.048 359.324 253.625 361.077 258.582 361.788C267.683 363.087 277.515 361.777 284.988 356.087C288.379 353.51 291.264 349.431 289.574 345.029Z" fill="#8B2C20"/>
</g>
<mask id="mask13_644_593" style="mask-type:luminance" maskUnits="userSpaceOnUse" x="-12" y="-32" width="773" height="516">
<path d="M-12 -32H761V483.333H-12V-32Z" fill="white"/>
</mask>
<g mask="url(#mask13_644_593)">
<path d="M185.343 383.319C184.002 381.835 182.055 381.328 180.343 380.432C175.933 378.113 174.644 372.743 172.418 368.683C170.346 364.89 166.873 361.313 162.224 361.479C157.586 361.633 155.133 365.509 154.71 369.755C154.289 374.001 155.629 378.401 157.71 382.071C160.153 386.399 163.833 390.316 168.048 392.965C168.378 393.172 168.728 393.368 169.088 393.553C171.335 395.429 174.077 396.613 177.149 396.314C181.22 395.923 185.147 393.368 186.445 389.357C187.116 387.287 186.836 384.968 185.343 383.319Z" fill="#8B2C20"/>
</g>
<mask id="mask14_644_593" style="mask-type:luminance" maskUnits="userSpaceOnUse" x="-12" y="-32" width="773" height="516">
<path d="M-12 -32H761V483.333H-12V-32Z" fill="white"/>
</mask>
<g mask="url(#mask14_644_593)">
<path d="M349.547 370.559C346.115 360.046 338.21 351.203 328.501 345.863C325.45 347.956 323.71 351.935 325.091 355.531C325.419 356.408 325.873 357.19 326.41 357.871C325.626 358.561 324.998 359.458 324.617 360.581C323.224 364.633 326.594 368.054 330.088 369.424C332.037 370.178 334.109 370.476 336.097 371.104C338.273 371.795 339.685 372.93 340.9 374.835C341.951 376.485 343.035 378.185 344.817 379.124C346.642 380.071 348.764 379.824 350.403 378.618C350.671 378.423 350.918 378.206 351.156 377.969C350.867 375.455 350.332 372.96 349.547 370.559Z" fill="#8B2C20"/>
</g>
<mask id="mask15_644_593" style="mask-type:luminance" maskUnits="userSpaceOnUse" x="-12" y="-32" width="773" height="516">
<path d="M-12 -32H761V483.333H-12V-32Z" fill="white"/>
</mask>
<g mask="url(#mask15_644_593)">
<path d="M126.356 349.337C125.851 356.13 117.916 358.841 112.412 356.036C109.752 354.677 108.072 352.316 107.299 349.482C106.887 347.945 106.671 346.255 105.455 345.111C104.476 344.183 103.156 343.638 101.991 342.989C98.3336 340.947 96.1064 337.422 95.5292 333.507C95.3231 332.145 95.3231 330.723 95.5405 329.311C97.4875 330.075 99.4766 330.661 101.548 330.95C102.105 331.022 102.661 331.073 103.229 331.105C104.002 331.147 104.785 331.125 105.558 331.053C107.969 330.867 110.33 330.187 112.329 328.971C113.215 331.207 113.04 333.971 114.246 336.103C115.967 339.154 119.07 340.061 121.873 341.793C124.192 343.216 126.016 345.327 126.326 347.987C126.378 348.419 126.387 348.873 126.356 349.337Z" fill="#FF9BD2"/>
</g>
<mask id="mask16_644_593" style="mask-type:luminance" maskUnits="userSpaceOnUse" x="-12" y="-32" width="773" height="516">
<path d="M-12 -32H761V483.333H-12V-32Z" fill="white"/>
</mask>
<g mask="url(#mask16_644_593)">
<mask id="mask17_644_593" style="mask-type:luminance" maskUnits="userSpaceOnUse" x="103" y="331" width="15" height="22">
<path d="M103.211 331.053H117.055V352.429H103.211V331.053Z" fill="white"/>
</mask>
<g mask="url(#mask17_644_593)">
<path d="M117.05 351.316C117.173 352.81 114.854 352.791 114.731 351.316C114.35 346.741 110.238 343.699 107.382 340.557C105.033 337.97 103.002 334.63 103.229 331.105C104.002 331.147 104.786 331.125 105.559 331.053C105.167 334.907 108.279 338.216 110.836 340.804C113.772 343.782 116.689 346.966 117.05 351.316Z" fill="#FF9BD2"/>
</g>
</g>
<mask id="mask18_644_593" style="mask-type:luminance" maskUnits="userSpaceOnUse" x="-12" y="-32" width="773" height="516">
<path d="M-12 -32H761V483.333H-12V-32Z" fill="white"/>
</mask>
<g mask="url(#mask18_644_593)">
<path d="M96.1049 298.257C95.2021 301.845 89.4984 306.125 84.5883 304.889C79.6782 303.652 77.4189 297.37 78.3218 293.781C79.2257 290.194 83.9379 288.286 88.849 289.522C93.7602 290.759 97.0088 294.67 96.1049 298.257Z" fill="#390A0A"/>
</g>
<mask id="mask19_644_593" style="mask-type:luminance" maskUnits="userSpaceOnUse" x="-12" y="-32" width="773" height="516">
<path d="M-12 -32H761V483.333H-12V-32Z" fill="white"/>
</mask>
<g mask="url(#mask19_644_593)">
<g opacity="0.559998">
<mask id="mask20_644_593" style="mask-type:luminance" maskUnits="userSpaceOnUse" x="79" y="289" width="15" height="13">
<path d="M79.915 289.912H93.478V301.853H79.915V289.912Z" fill="white"/>
</mask>
<g mask="url(#mask20_644_593)">
<path d="M93.3656 296.73C92.6905 299.413 88.4225 302.615 84.7492 301.689C81.0749 300.765 79.3867 296.064 80.0618 293.38C80.7369 290.696 84.2638 289.27 87.9371 290.194C91.6114 291.12 94.0407 294.046 93.3656 296.73Z" fill="#390A0A"/>
</g>
</g>
</g>
<mask id="mask21_644_593" style="mask-type:luminance" maskUnits="userSpaceOnUse" x="-12" y="-32" width="773" height="516">
<path d="M-12 -31.9999H761V483.333H-12V-31.9999Z" fill="white"/>
</mask>
<g mask="url(#mask21_644_593)">
<path d="M89.7598 293.497C89.5413 294.363 87.5737 295.247 85.7206 294.781C83.8675 294.314 82.8316 292.673 83.0491 291.807C83.2676 290.942 84.9466 290.617 86.7997 291.083C88.6528 291.55 89.9783 292.63 89.7598 293.497Z" fill="white"/>
</g>
<mask id="mask22_644_593" style="mask-type:luminance" maskUnits="userSpaceOnUse" x="-12" y="-32" width="773" height="516">
<path d="M-12 -31.9999H761V483.333H-12V-31.9999Z" fill="white"/>
</mask>
<g mask="url(#mask22_644_593)">
<path d="M125.084 313.761C125.075 313.572 125.062 313.385 125.044 313.196C124.954 312.322 124.701 311.396 124.022 310.838C123.313 310.255 122.255 310.214 121.425 310.606C120.596 310.999 119.987 311.765 119.629 312.611C118.933 314.259 118.716 316.718 119.613 318.332C120.119 319.241 121.141 319.926 122.171 319.77C122.754 319.681 123.279 319.336 123.666 318.89C124.053 318.444 124.315 317.903 124.519 317.349C124.94 316.206 125.133 314.979 125.084 313.761Z" fill="#390A0A"/>
</g>
<mask id="mask23_644_593" style="mask-type:luminance" maskUnits="userSpaceOnUse" x="-12" y="-32" width="773" height="516">
<path d="M-12 -32H761V483.333H-12V-32Z" fill="white"/>
</mask>
<g mask="url(#mask23_644_593)">
<path d="M110.457 329.519C110.381 329.526 110.305 329.535 110.227 329.541C110.221 329.54 110.217 329.537 110.211 329.536L110.457 329.519Z" fill="#F24E37"/>
</g>
<mask id="mask24_644_593" style="mask-type:luminance" maskUnits="userSpaceOnUse" x="-12" y="-32" width="773" height="516">
<path d="M-12 -32H761V483.333H-12V-32Z" fill="white"/>
</mask>
<g mask="url(#mask24_644_593)">
<path d="M206.904 399.984C210.918 403.902 213.523 409.08 215.155 414.446C216.789 419.812 217.511 425.407 218.228 430.97C219.337 427.9 221.866 425.375 224.938 424.27C226.767 423.614 229.278 423.713 230.099 425.475C230.907 427.212 229.472 429.123 228.086 430.445C225.915 432.51 223.599 434.421 221.16 436.159C218.852 437.803 216.238 439.347 213.407 439.233C211.036 439.137 208.872 437.884 206.935 436.511C199.438 431.198 193.752 423.654 189.37 415.576C186.978 411.167 184.92 406.505 184.084 401.559C183.249 396.613 183.715 391.33 186.134 386.934C187.187 385.019 188.623 383.275 190.477 382.119C192.329 380.961 194.628 380.436 196.751 380.953C198.876 381.472 200.623 382.944 202.234 384.423C206.632 388.46 210.722 392.964 213.389 398.303C216.056 403.644 217.197 409.926 215.565 415.669" fill="#F24E37"/>
</g>
<mask id="mask25_644_593" style="mask-type:luminance" maskUnits="userSpaceOnUse" x="-12" y="-32" width="773" height="516">
<path d="M-12 -32H761V483.333H-12V-32Z" fill="white"/>
</mask>
<g mask="url(#mask25_644_593)">
<g opacity="0.360001">
<mask id="mask26_644_593" style="mask-type:luminance" maskUnits="userSpaceOnUse" x="183" y="380" width="48" height="60">
<path d="M183.701 380.754H230.334V439.239H183.701V380.754Z" fill="white"/>
</mask>
<g mask="url(#mask26_644_593)">
<path d="M206.904 399.984C210.918 403.902 213.523 409.08 215.155 414.446C216.789 419.812 217.511 425.407 218.228 430.97C219.337 427.9 221.866 425.375 224.938 424.27C226.767 423.614 229.278 423.714 230.099 425.475C230.907 427.212 229.472 429.124 228.086 430.445C225.915 432.51 223.599 434.421 221.16 436.159C218.852 437.803 216.238 439.347 213.407 439.233C211.036 439.137 208.872 437.884 206.935 436.511C199.438 431.198 193.752 423.654 189.37 415.576C186.978 411.167 184.92 406.506 184.084 401.559C183.249 396.613 183.715 391.33 186.134 386.934C187.187 385.019 188.623 383.275 190.477 382.119C192.329 380.961 194.628 380.436 196.751 380.953C198.876 381.472 200.623 382.944 202.234 384.423C206.632 388.46 210.722 392.964 213.389 398.303C216.056 403.644 217.197 409.926 215.565 415.669" fill="#F24E37"/>
</g>
</g>
</g>
<mask id="mask27_644_593" style="mask-type:luminance" maskUnits="userSpaceOnUse" x="-12" y="-32" width="773" height="516">
<path d="M-12 -31.9999H761V483.333H-12V-31.9999Z" fill="white"/>
</mask>
<g mask="url(#mask27_644_593)">
<path d="M143.1 313.493C144.244 311.773 146.085 310.602 148.085 310.105C150.673 309.123 153.635 309.076 156.432 309.359C163.584 310.086 170.455 312.606 176.882 315.824C180.83 317.8 184.674 320.072 187.91 323.073C189.185 324.256 190.39 325.6 190.953 327.246C191.516 328.891 191.3 330.902 190.038 332.099C188.858 333.218 187.095 333.396 185.472 333.515C181.5 333.806 177.527 334.098 173.555 334.39C167.476 334.836 161.259 335.271 155.375 333.68C149.491 332.088 143.9 328.06 142.131 322.228C141.251 319.331 141.423 316.012 143.1 313.493Z" fill="#F24E37"/>
</g>
<mask id="mask28_644_593" style="mask-type:luminance" maskUnits="userSpaceOnUse" x="-12" y="-32" width="773" height="516">
<path d="M-12 -32H761V483.333H-12V-32Z" fill="white"/>
</mask>
<g mask="url(#mask28_644_593)">
<mask id="mask29_644_593" style="mask-type:luminance" maskUnits="userSpaceOnUse" x="141" y="309" width="51" height="26">
<path d="M141.609 309.208H191.247V334.802H141.609V309.208Z" fill="white"/>
</mask>
<g mask="url(#mask29_644_593)">
<path d="M143.101 313.493C144.245 311.773 146.086 310.602 148.086 310.105C150.674 309.123 153.636 309.075 156.433 309.359C163.585 310.086 170.456 312.606 176.883 315.824C180.831 317.8 184.675 320.072 187.911 323.073C189.186 324.256 190.391 325.6 190.954 327.246C191.517 328.891 191.301 330.902 190.039 332.099C188.859 333.218 187.096 333.396 185.473 333.515C181.501 333.806 177.528 334.098 173.556 334.39C167.477 334.836 161.26 335.271 155.376 333.68C149.492 332.088 143.901 328.06 142.132 322.228C141.252 319.331 141.424 316.012 143.101 313.493Z" fill="#F24E37"/>
</g>
</g>
<mask id="mask30_644_593" style="mask-type:luminance" maskUnits="userSpaceOnUse" x="-12" y="-32" width="773" height="516">
<path d="M-12 -32H761V483.333H-12V-32Z" fill="white"/>
</mask>
<g mask="url(#mask30_644_593)">
<path d="M550.705 148.811C584.369 198.871 583.71 245.492 543.834 288.185L548.317 292.94C548.317 292.94 628.272 234.397 550.705 148.811Z" fill="#DF6323"/>
</g>
<mask id="mask31_644_593" style="mask-type:luminance" maskUnits="userSpaceOnUse" x="-12" y="-32" width="773" height="516">
<path d="M-12 -32H761V483.333H-12V-32Z" fill="white"/>
</mask>
<g mask="url(#mask31_644_593)">
<path d="M511.345 435.091H538.423C541.535 435.091 544.006 432.541 543.824 429.516L538.611 342.66C518.543 340.874 512.854 326.933 511.934 301.579C511.613 292.721 496.992 285.671 488.432 282.658C480.391 279.828 474.134 282.782 469.401 290.679C464.205 299.35 462.599 309.706 464.76 319.521C467.703 332.904 477.919 350.699 510.751 355.183C515.653 355.852 519.664 359.328 520.997 363.969L533.461 428.436C533.461 428.436 515.73 422.413 508.775 429.264C506.588 431.417 508.234 435.091 511.345 435.091Z" fill="#DF6323"/>
</g>
<mask id="mask32_644_593" style="mask-type:luminance" maskUnits="userSpaceOnUse" x="-12" y="-32" width="773" height="516">
<path d="M-12 -32H761V483.333H-12V-32Z" fill="white"/>
</mask>
<g mask="url(#mask32_644_593)">
<mask id="mask33_644_593" style="mask-type:luminance" maskUnits="userSpaceOnUse" x="463" y="281" width="77" height="75">
<path d="M463.826 281.607H539.373V355.335H463.826V281.607Z" fill="white"/>
</mask>
<g mask="url(#mask33_644_593)">
<path d="M501.22 335.264C501.474 335.025 501.839 335.09 502.029 335.368C504.571 339.08 507.968 342.158 511.656 344.706C518.916 349.721 527.413 352.962 536.028 354.727C537.131 354.954 538.247 355.156 539.373 355.335L538.612 342.661C518.544 340.874 514.504 324.114 513.583 298.761C513.262 289.903 496.992 285.671 488.432 282.658C480.391 279.828 474.134 282.781 469.401 290.678C464.205 299.349 462.599 309.705 464.76 319.521C466.69 328.297 471.749 338.971 484.262 346.543C490.371 343.512 496.232 339.951 501.22 335.264Z" fill="#DF6323"/>
</g>
</g>
<mask id="mask34_644_593" style="mask-type:luminance" maskUnits="userSpaceOnUse" x="-12" y="-32" width="773" height="516">
<path d="M-12 -32H761V483.333H-12V-32Z" fill="white"/>
</mask>
<g mask="url(#mask34_644_593)">
<path d="M548.32 292.946C546.764 294.153 545.208 295.337 543.662 296.512C517.359 316.457 493.355 331.802 471.917 341.955C460.126 347.53 449.118 351.53 438.946 353.838H438.935C436.194 354.477 433.504 354.973 430.887 355.343C420.693 356.827 411.417 356.404 403.161 353.992C397.946 352.478 393.205 349.932 389.082 346.635C389.082 346.635 389.062 346.635 389.062 346.613C382.218 341.119 377.126 333.472 374.581 324.794C374.323 323.907 374.076 323.012 373.828 322.074C371.025 311.663 368.819 298.398 367.129 282.95C365.985 272.549 365.088 261.16 364.387 248.968C364.336 247.968 364.264 246.958 364.222 245.938C363.068 224.531 362.542 200.794 362.563 175.791C362.563 172.679 363.491 169.69 365.14 167.184C366.861 164.546 369.386 162.443 372.447 161.268C382.321 157.497 392.112 155.91 401.811 156.692C420.126 158.156 434.431 173.153 435.277 191.498L437.194 232.622C437.616 249.699 442.161 261.605 449.644 269.51C464.228 284.929 511.855 275.94 520.977 275.776C538.951 275.456 549.372 278.229 548.32 292.946Z" fill="#DF6323"/>
</g>
<mask id="mask35_644_593" style="mask-type:luminance" maskUnits="userSpaceOnUse" x="-12" y="-32" width="773" height="516">
<path d="M-12 -32H761V483.333H-12V-32Z" fill="white"/>
</mask>
<g mask="url(#mask35_644_593)">
<g opacity="0.279999">
<mask id="mask36_644_593" style="mask-type:luminance" maskUnits="userSpaceOnUse" x="362" y="161" width="182" height="196">
<path d="M362.561 161.125H543.677V356.205H362.561V161.125Z" fill="white"/>
</mask>
<g mask="url(#mask36_644_593)">
<path d="M543.661 296.512C517.357 316.457 493.353 331.802 471.916 341.955C460.125 347.53 449.118 351.53 438.944 353.838H438.935C436.192 354.477 433.502 354.973 430.886 355.343C420.691 356.828 411.415 356.404 403.161 353.993C397.944 352.478 393.204 349.932 389.082 346.634C389.082 346.634 389.061 346.634 389.061 346.613C382.216 341.119 377.126 333.472 374.579 324.794C374.322 323.907 374.075 323.012 373.828 322.074C371.024 311.663 368.818 298.398 367.129 282.95C365.983 272.549 365.087 261.16 364.387 248.967C364.346 248.225 364.294 247.473 364.262 246.721C364.243 246.463 364.231 246.196 364.221 245.938C363.706 236.446 363.324 226.49 363.047 216.172C362.943 212.131 362.85 208.041 362.789 203.897C362.779 203.525 362.768 203.154 362.768 202.773C362.625 193.982 362.551 184.973 362.563 175.791C362.563 172.679 363.489 169.69 365.139 167.185C365.954 166.679 366.819 166.246 367.737 165.897C377.61 162.123 387.402 160.536 397.1 161.321C415.414 162.783 429.72 177.779 430.566 196.126L432.472 237.249C432.906 254.327 437.45 266.231 444.934 274.136C459.516 289.555 507.144 280.568 516.266 280.403C533.798 280.094 544.146 282.722 543.661 296.512Z" fill="#DF6323"/>
</g>
</g>
</g>
<mask id="mask37_644_593" style="mask-type:luminance" maskUnits="userSpaceOnUse" x="-12" y="-32" width="773" height="516">
<path d="M-12 -32H761V483.333H-12V-32Z" fill="white"/>
</mask>
<g mask="url(#mask37_644_593)">
<mask id="mask38_644_593" style="mask-type:luminance" maskUnits="userSpaceOnUse" x="409" y="293" width="95" height="64">
<path d="M409.12 293.542H503.525V356.202H409.12V293.542Z" fill="white"/>
</mask>
<g mask="url(#mask38_644_593)">
<path d="M491.366 326.309C488.007 326.602 484.63 326.709 481.261 326.575C477.922 326.442 474.574 326.131 471.39 325.06C465.092 322.941 460.29 318.344 456.332 313.16C454.248 310.43 452.41 307.546 450.537 304.673C448.807 302.021 446.979 299.363 444.551 297.294C441.992 295.109 438.893 293.964 435.561 293.668C432.415 293.388 429.217 293.564 426.146 294.318C420.45 295.717 415.242 299.272 413.043 304.876C410.881 310.382 411.91 316.61 412.7 322.293C413.56 328.502 414.651 334.772 414.394 341.063C414.181 346.28 412.848 351.583 409.12 355.35C415.809 356.49 423.073 356.481 430.887 355.348C433.507 354.973 436.195 354.475 438.935 353.843H438.949C449.118 351.533 460.122 347.529 471.918 341.954C481.903 337.224 492.45 331.362 503.525 324.436C499.516 325.321 495.451 325.951 491.366 326.309Z" fill="#DF6323"/>
</g>
</g>
<mask id="mask39_644_593" style="mask-type:luminance" maskUnits="userSpaceOnUse" x="-12" y="-32" width="773" height="516">
<path d="M-12 -32H761V483.333H-12V-32Z" fill="white"/>
</mask>
<g mask="url(#mask39_644_593)">
<path d="M437.966 149.251C436.894 161.052 427.763 170.885 427.763 170.885L422.547 165.35C418.672 172.792 414.044 177.399 410.097 180.212C405.789 183.284 399.656 181.068 398.348 175.935C397.905 174.193 397.565 172.503 397.307 170.854C397.244 170.452 397.193 170.06 397.152 169.669C395.215 154.652 400.8 143.603 405.305 137.388C407.932 133.77 412.632 132.328 416.859 133.791L429.01 137.976L431.113 138.697C431.39 138.79 431.659 138.903 431.927 139.017C435.884 140.769 438.359 144.871 437.966 149.251Z" fill="#8B2C20"/>
</g>
<mask id="mask40_644_593" style="mask-type:luminance" maskUnits="userSpaceOnUse" x="-12" y="-32" width="773" height="516">
<path d="M-12 -32H761V483.333H-12V-32Z" fill="white"/>
</mask>
<g mask="url(#mask40_644_593)">
<g opacity="0.300003">
<mask id="mask41_644_593" style="mask-type:luminance" maskUnits="userSpaceOnUse" x="396" y="133" width="36" height="45">
<path d="M396.757 133.226H431.926V177.564H396.757V133.226Z" fill="white"/>
</mask>
<g mask="url(#mask41_644_593)">
<path d="M431.927 139.016C430.556 143.263 421.433 161.856 421.217 162.495C417.476 169.236 413.138 173.502 409.396 176.162C405.088 179.233 398.956 177.017 397.657 171.884C397.585 171.585 397.512 171.297 397.451 171.008C397.336 170.555 397.234 170.112 397.152 169.668C395.214 154.652 400.8 143.603 405.304 137.388C407.933 133.77 412.631 132.327 416.858 133.791L429.01 137.975L431.112 138.697C431.39 138.79 431.659 138.903 431.927 139.016Z" fill="#8B2C20"/>
</g>
</g>
</g>
<mask id="mask42_644_593" style="mask-type:luminance" maskUnits="userSpaceOnUse" x="-12" y="-32" width="773" height="516">
<path d="M-12 -32H761V483.333H-12V-32Z" fill="white"/>
</mask>
<g mask="url(#mask42_644_593)">
<g opacity="0.300003">
<mask id="mask43_644_593" style="mask-type:luminance" maskUnits="userSpaceOnUse" x="396" y="133" width="34" height="41">
<path d="M396.757 133.226H429.009V173.633H396.757V133.226Z" fill="white"/>
</mask>
<g mask="url(#mask43_644_593)">
<path d="M429.01 137.976C426.154 144.665 419.61 158.022 419.413 158.558C415.673 165.309 411.343 169.566 407.602 172.235C404.284 174.595 399.893 173.822 397.451 171.009C397.399 170.957 397.358 170.905 397.306 170.854C397.245 170.452 397.193 170.06 397.152 169.669C395.214 154.652 400.8 143.603 405.304 137.388C407.933 133.771 412.631 132.328 416.858 133.791L429.01 137.976Z" fill="#8B2C20"/>
</g>
</g>
</g>
<mask id="mask44_644_593" style="mask-type:luminance" maskUnits="userSpaceOnUse" x="-12" y="-32" width="773" height="516">
<path d="M-12 -31.9999H761V483.333H-12V-31.9999Z" fill="white"/>
</mask>
<g mask="url(#mask44_644_593)">
<path d="M429.381 168.066C429.247 166.635 429.131 165.199 428.926 163.776C428.751 162.556 428.573 161.217 428.019 160.101C427.823 159.709 427.667 159.484 427.36 159.313C427.376 159.322 427.296 159.296 427.234 159.295C427.095 159.291 427.228 159.278 427.088 159.312C426.916 159.354 426.763 159.442 426.582 159.577C425.743 160.207 425.153 161.226 424.647 162.124C423.984 163.301 423.462 164.548 422.985 165.81L427.76 170.882C427.76 170.882 428.448 170.141 429.464 168.828C429.439 168.573 429.403 168.321 429.381 168.066Z" fill="#390A0A"/>
</g>
<mask id="mask45_644_593" style="mask-type:luminance" maskUnits="userSpaceOnUse" x="-12" y="-32" width="773" height="516">
<path d="M-12 -31.9999H761V483.333H-12V-31.9999Z" fill="white"/>
</mask>
<g mask="url(#mask45_644_593)">
<path d="M380.31 158.723L379.743 158.908L375.414 160.31L372.446 161.269C369.23 151.137 364.962 148.808 364.962 148.808C362.799 159.815 357.13 166.886 353.007 170.73C349.781 173.75 344.587 173.193 342.01 169.607C340.639 167.7 339.464 165.412 338.475 163.124C337.423 160.722 336.589 158.3 335.969 156.301C335.774 155.682 335.629 155.054 335.537 154.425C335.527 154.415 335.527 154.404 335.527 154.394C334.971 150.684 336.032 146.86 338.578 144.046C342.484 139.717 348.617 135.657 353.698 132.699C359.758 129.163 367.591 131.05 371.198 137.069C376.702 146.252 380.31 158.723 380.31 158.723Z" fill="#8B2C20"/>
</g>
<mask id="mask46_644_593" style="mask-type:luminance" maskUnits="userSpaceOnUse" x="-12" y="-32" width="773" height="516">
<path d="M-12 -32H761V483.333H-12V-32Z" fill="white"/>
</mask>
<g mask="url(#mask46_644_593)">
<g opacity="0.300003">
<mask id="mask47_644_593" style="mask-type:luminance" maskUnits="userSpaceOnUse" x="335" y="130" width="46" height="40">
<path d="M335.383 130.922H380.31V169.011H335.383V130.922Z" fill="white"/>
</mask>
<g mask="url(#mask47_644_593)">
<path d="M380.311 158.723L379.744 158.908L375.415 160.31C371.333 151.312 363.686 142.418 363.686 142.418C361.521 153.425 355.337 163.206 351.215 167.061C347.979 170.071 342.794 169.524 340.218 165.927C339.599 165.062 339.012 164.113 338.476 163.124C337.424 160.722 336.59 158.3 335.97 156.301C335.775 155.682 335.63 155.054 335.538 154.425C335.528 154.415 335.528 154.404 335.528 154.394C334.971 150.684 336.033 146.86 338.579 144.046C342.485 139.717 348.618 135.657 353.699 132.699C359.759 129.163 367.592 131.05 371.199 137.069C376.703 146.252 380.311 158.723 380.311 158.723Z" fill="#8B2C20"/>
</g>
</g>
</g>
<mask id="mask48_644_593" style="mask-type:luminance" maskUnits="userSpaceOnUse" x="-12" y="-32" width="773" height="516">
<path d="M-12 -32H761V483.333H-12V-32Z" fill="white"/>
</mask>
<g mask="url(#mask48_644_593)">
<g opacity="0.300003">
<mask id="mask49_644_593" style="mask-type:luminance" maskUnits="userSpaceOnUse" x="335" y="130" width="46" height="35">
<path d="M335.383 130.922H380.31V164.651H335.383V130.922Z" fill="white"/>
</mask>
<g mask="url(#mask49_644_593)">
<path d="M380.311 158.723L379.744 158.908C374.941 149.282 362.83 138.058 362.83 138.058C360.665 149.066 354.481 158.847 350.358 162.701C347.133 165.711 341.939 165.165 339.362 161.568C337.857 159.475 336.579 156.93 335.538 154.425C335.528 154.415 335.528 154.404 335.528 154.394C334.971 150.684 336.033 146.86 338.579 144.046C342.485 139.717 348.618 135.657 353.699 132.699C359.759 129.163 367.592 131.05 371.199 137.069C376.703 146.252 380.311 158.723 380.311 158.723Z" fill="#8B2C20"/>
</g>
</g>
</g>
<mask id="mask50_644_593" style="mask-type:luminance" maskUnits="userSpaceOnUse" x="-12" y="-32" width="773" height="516">
<path d="M-12 -31.9999H761V483.333H-12V-31.9999Z" fill="white"/>
</mask>
<g mask="url(#mask50_644_593)">
<path d="M375.371 201.411C374.541 201.411 347.511 207.057 331.256 210.467C323.258 212.145 318.176 220.187 320.324 228.07C324.143 242.092 338.013 258.336 385.591 240.393C408.048 231.923 399.877 198.261 376.071 201.318C375.839 201.347 375.606 201.378 375.371 201.411Z" fill="#DF6323"/>
</g>
<mask id="mask51_644_593" style="mask-type:luminance" maskUnits="userSpaceOnUse" x="-12" y="-32" width="773" height="516">
<path d="M-12 -32H761V483.333H-12V-32Z" fill="white"/>
</mask>
<g mask="url(#mask51_644_593)">
<g opacity="0.279999">
<mask id="mask52_644_593" style="mask-type:luminance" maskUnits="userSpaceOnUse" x="319" y="201" width="80" height="48">
<path d="M319.832 201.123H398.799V248.304H319.832V201.123Z" fill="white"/>
</mask>
<g mask="url(#mask52_644_593)">
<path d="M385.588 240.393C377.559 243.422 370.489 245.474 364.264 246.721C333.611 252.915 323.501 239.723 320.327 228.066C318.554 221.562 321.697 214.946 327.356 211.885C328.551 211.246 329.85 210.761 331.251 210.462C340.548 208.515 353.358 205.835 362.79 203.897C369.849 202.454 375.013 201.413 375.374 201.413C375.601 201.382 375.838 201.352 376.075 201.321C381.507 200.62 386.124 201.836 389.741 204.227C402.007 212.307 402.923 233.859 385.588 240.393Z" fill="#DF6323"/>
</g>
</g>
</g>
<mask id="mask53_644_593" style="mask-type:luminance" maskUnits="userSpaceOnUse" x="-12" y="-32" width="773" height="516">
<path d="M-12 -32H761V483.333H-12V-32Z" fill="white"/>
</mask>
<g mask="url(#mask53_644_593)">
<mask id="mask54_644_593" style="mask-type:luminance" maskUnits="userSpaceOnUse" x="325" y="174" width="66" height="48">
<path d="M325.941 174.673H390.181V221.317H325.941V174.673Z" fill="white"/>
</mask>
<g mask="url(#mask54_644_593)">
<path d="M390.144 205.824C390.081 205.268 389.937 204.742 389.741 204.227C389.453 203.443 389.03 202.701 388.618 201.969C387.803 200.557 387.082 199.156 386.835 197.517C386.34 194.178 387.412 190.869 388.123 187.633C388.762 184.675 389.206 181.335 387.752 178.532C386.639 176.388 384.412 174.492 381.867 174.688C379.363 174.873 377.589 176.965 376.796 179.202C375.745 182.201 376.518 185.438 377.064 188.468C377.569 191.312 377.94 194.528 376.487 197.177C375.086 199.733 372.26 200.733 369.582 201.351C367.324 201.877 365.046 202.32 362.768 202.773C362.768 203.155 362.779 203.526 362.79 203.897C353.359 205.834 340.548 208.514 331.25 210.462C329.85 210.761 328.551 211.245 327.355 211.884C326.046 213.492 325.448 215.657 326.428 217.625C327.716 220.222 330.705 221.191 333.416 221.305C335.106 221.367 336.807 221.191 338.487 221.026C340.197 220.851 341.897 220.635 343.599 220.367C350.154 219.357 356.616 217.77 363.047 216.172C363.408 216.079 363.769 215.997 364.13 215.904C371.097 214.183 378.064 212.462 385.031 210.74C386.391 210.411 388.031 210.204 389.113 209.215C390.03 208.36 390.288 207.03 390.144 205.824Z" fill="#F7F0CD"/>
</g>
</g>
<mask id="mask55_644_593" style="mask-type:luminance" maskUnits="userSpaceOnUse" x="-12" y="-32" width="773" height="516">
<path d="M-12 -31.9999H761V483.333H-12V-31.9999Z" fill="white"/>
</mask>
<g mask="url(#mask55_644_593)">
<path d="M416.046 212.196C416.074 212.206 416.128 212.214 416.17 212.208C416.151 212.204 416.146 212.204 416.132 212.201C416.099 212.199 416.082 212.201 416.046 212.196Z" fill="#390A0A"/>
</g>
<mask id="mask56_644_593" style="mask-type:luminance" maskUnits="userSpaceOnUse" x="-12" y="-32" width="773" height="516">
<path d="M-12 -31.9999H761V483.333H-12V-31.9999Z" fill="white"/>
</mask>
<g mask="url(#mask56_644_593)">
<path d="M418.056 211.154C417.868 211.987 416.968 212.376 416.189 212.216C416.176 212.216 416.176 212.216 416.162 212.202H416.136H416.122C416.041 212.188 416.015 212.188 416.041 212.202C416.015 212.188 415.974 212.188 415.961 212.188H415.719C415.692 212.188 415.531 212.202 415.531 212.202C415.436 212.229 415.343 212.242 415.249 212.269L415.007 212.35C417.372 216.635 415.585 221.848 411.742 224.602C407.524 227.652 402.782 226.913 397.918 227.154C392.06 227.423 389.575 232.528 386.741 236.868C381.823 244.365 373.454 249.335 364.385 248.972C364.332 247.965 364.265 246.957 364.225 245.936C369.41 246.178 374.475 244.512 378.599 241.368C380.802 239.702 382.616 237.633 384.121 235.337C385.679 232.972 387.035 230.473 388.944 228.378C390.678 226.47 392.867 224.952 395.405 224.427C398.348 223.81 401.317 224.373 404.273 224.119C406.892 223.89 409.673 222.91 411.433 220.867C412.911 219.134 413.502 216.702 412.723 214.593C412.669 214.674 412.615 214.741 412.575 214.822C412.226 215.466 411.931 216.138 411.635 216.797C411.286 217.575 410.224 217.683 409.567 217.347C409.231 217.173 408.962 216.783 408.867 216.434C408.746 216.018 408.854 215.655 409.015 215.279C409.713 213.72 410.466 212.121 411.729 210.94C413.152 209.609 415.061 208.883 416.996 209.3C417.828 209.475 418.232 210.402 418.056 211.154Z" fill="#390A0A"/>
</g>
<mask id="mask57_644_593" style="mask-type:luminance" maskUnits="userSpaceOnUse" x="-12" y="-32" width="773" height="516">
<path d="M-12 -31.9999H761V483.333H-12V-31.9999Z" fill="white"/>
</mask>
<g mask="url(#mask57_644_593)">
<path d="M434.559 284.204C429.384 284.619 424.786 286.711 420.734 290.393C411.77 298.54 410.752 312.319 417.957 322.059C427.376 334.796 440.978 354.433 444.017 365.449C449.86 388.2 438.58 408.94 424.402 429.341C424.402 429.341 403.602 426.072 403.602 440.336H427.076C431.273 440.336 435.133 438.062 437.163 434.391C446.304 417.87 472.498 371.908 486.808 360.992C486.808 360.992 462.838 339.115 459.588 305.867C458.342 293.127 447.318 283.177 434.559 284.204Z" fill="#DF6323"/>
</g>
<mask id="mask58_644_593" style="mask-type:luminance" maskUnits="userSpaceOnUse" x="-12" y="-32" width="773" height="516">
<path d="M-12 -32H761V483.333H-12V-32Z" fill="white"/>
</mask>
<g mask="url(#mask58_644_593)">
<g opacity="0.279999">
<mask id="mask59_644_593" style="mask-type:luminance" maskUnits="userSpaceOnUse" x="413" y="284" width="74" height="95">
<path d="M413.199 284.13H486.809V378.831H413.199V284.13Z" fill="white"/>
</mask>
<g mask="url(#mask59_644_593)">
<path d="M444.017 365.449C444.593 367.691 444.995 369.911 445.253 372.114C446.552 369.642 447.158 366.776 447.38 364.011C447.432 363.359 448.428 363.341 448.411 364.011C448.281 368.555 449.128 373.083 448.311 377.572C453.388 374.078 457.717 369.706 462.064 365.356C462.355 365.067 462.999 365.259 462.943 365.721C462.443 369.958 461.087 374.595 462.227 378.83C463.738 376.22 465.107 373.51 467.024 371.164C468.901 368.868 471.254 367.334 473.978 366.221C476.352 365.25 478.835 364.591 481.271 363.794C482.692 363.327 484.109 362.789 485.447 362.106C485.912 361.702 486.366 361.329 486.809 360.992C486.809 360.992 462.839 339.116 459.589 305.866C458.342 293.127 447.318 283.177 434.559 284.204C429.385 284.619 424.786 286.71 420.734 290.393C411.77 298.54 410.753 312.319 417.957 322.059C427.376 334.796 440.978 354.433 444.017 365.449Z" fill="#DF6323"/>
</g>
</g>
</g>
<mask id="mask60_644_593" style="mask-type:luminance" maskUnits="userSpaceOnUse" x="-12" y="-32" width="773" height="516">
<path d="M-12 -31.9999H761V483.333H-12V-31.9999Z" fill="white"/>
</mask>
<g mask="url(#mask60_644_593)">
<path d="M430.885 355.344C416.133 370.888 394.101 409.606 385.879 424.464C383.85 428.147 379.98 430.417 375.789 430.417H352.318C352.318 416.149 373.115 419.414 373.115 419.414C387.302 399.02 398.574 378.277 392.73 355.532C392.018 352.966 390.742 349.93 389.076 346.625C393.201 349.93 397.943 352.469 403.156 353.987C411.417 356.405 420.688 356.823 430.885 355.344Z" fill="#DF6323"/>
</g>
<mask id="mask61_644_593" style="mask-type:luminance" maskUnits="userSpaceOnUse" x="-12" y="-32" width="773" height="516">
<path d="M-12 -32H761V483.333H-12V-32Z" fill="white"/>
</mask>
<g mask="url(#mask61_644_593)">
<path d="M558.222 435.091H585.299C588.411 435.091 590.882 432.472 590.701 429.364L585.488 340.161C565.42 338.325 550.732 325.043 549.813 299.003C549.491 289.907 543.869 281.629 535.308 278.535C527.267 275.628 521.01 278.662 516.278 286.772C511.081 295.677 509.477 306.314 511.637 316.396C514.58 330.14 524.796 348.417 557.628 353.021C562.53 353.708 566.542 357.279 567.873 362.046L580.337 428.256C580.337 428.256 562.606 422.071 555.652 429.105C553.465 431.317 555.11 435.091 558.222 435.091Z" fill="#DF6323"/>
</g>
<mask id="mask62_644_593" style="mask-type:luminance" maskUnits="userSpaceOnUse" x="-12" y="-32" width="773" height="516">
<path d="M-12 -32H761V483.333H-12V-32Z" fill="white"/>
</mask>
<g mask="url(#mask62_644_593)">
<g opacity="0.279999">
<mask id="mask63_644_593" style="mask-type:luminance" maskUnits="userSpaceOnUse" x="510" y="277" width="76" height="87">
<path d="M510.701 277.456H585.765V363.808H510.701V277.456Z" fill="white"/>
</mask>
<g mask="url(#mask63_644_593)">
<path d="M567.3 360.439C567.773 357.954 567.982 355.431 567.867 352.84C567.84 352.245 568.722 352.159 568.879 352.703C570.128 357.038 572.285 361.743 576.508 363.809C575.328 359.2 576.111 354.383 576.776 349.739C576.84 349.3 577.535 349.243 577.718 349.617C579.508 353.251 580.065 357.162 579.871 361.118C580.877 358.793 581.713 356.399 582.306 353.929C583.143 350.433 583.49 346.852 583.598 343.266C583.613 342.763 584.296 342.553 584.558 343.005C584.929 343.641 585.329 344.281 585.765 344.901L585.487 340.16C565.42 338.326 550.732 325.042 549.812 299.004C549.491 289.906 543.869 281.629 535.307 278.535C527.266 275.628 521.009 278.661 516.277 286.772C511.08 295.678 509.476 306.313 511.636 316.396C514.581 330.14 524.796 348.417 557.627 353.021C561.959 353.629 565.594 356.491 567.3 360.439Z" fill="#DF6323"/>
</g>
</g>
</g>
<mask id="mask64_644_593" style="mask-type:luminance" maskUnits="userSpaceOnUse" x="-12" y="-32" width="773" height="516">
<path d="M-12 -31.9999H761V483.333H-12V-31.9999Z" fill="white"/>
</mask>
<g mask="url(#mask64_644_593)">
<path d="M346.843 212.828C346.843 219.349 338.936 229.115 330.012 229.115C321.088 229.115 314.525 219.349 314.525 212.828C314.525 206.307 321.76 201.021 330.683 201.021C339.608 201.021 346.843 206.307 346.843 212.828Z" fill="#390A0A"/>
</g>
<mask id="mask65_644_593" style="mask-type:luminance" maskUnits="userSpaceOnUse" x="-12" y="-32" width="773" height="516">
<path d="M-12 -32H761V483.333H-12V-32Z" fill="white"/>
</mask>
<g mask="url(#mask65_644_593)">
<mask id="mask66_644_593" style="mask-type:luminance" maskUnits="userSpaceOnUse" x="316" y="202" width="26" height="23">
<path d="M316.636 202.666H341.997V224.713H316.636V202.666Z" fill="white"/>
</mask>
<g mask="url(#mask66_644_593)">
<path d="M341.997 211.933C341.997 217.05 335.793 224.714 328.79 224.714C321.786 224.714 316.636 217.05 316.636 211.933C316.636 206.815 322.313 202.667 329.316 202.667C336.32 202.667 341.997 206.815 341.997 211.933Z" fill="#390A0A"/>
</g>
</g>
<mask id="mask67_644_593" style="mask-type:luminance" maskUnits="userSpaceOnUse" x="-12" y="-32" width="773" height="516">
<path d="M-12 -31.9999H761V483.333H-12V-31.9999Z" fill="white"/>
</mask>
<g mask="url(#mask67_644_593)">
<path d="M333.984 205.725C334.04 206.997 331.145 209.03 327.785 209.174C324.426 209.319 321.872 207.521 321.817 206.249C321.764 204.977 324.442 203.83 327.802 203.685C331.162 203.54 333.93 204.455 333.984 205.725Z" fill="white"/>
</g>
<mask id="mask68_644_593" style="mask-type:luminance" maskUnits="userSpaceOnUse" x="-12" y="-32" width="773" height="516">
<path d="M-12 -31.9999H761V483.333H-12V-31.9999Z" fill="white"/>
</mask>
<g mask="url(#mask68_644_593)">
<path d="M376.352 192.307C376.343 192.107 376.33 191.907 376.308 191.708C376.213 190.781 375.946 189.799 375.225 189.207C374.474 188.589 373.35 188.545 372.47 188.962C371.592 189.378 370.946 190.191 370.566 191.087C369.827 192.836 369.599 195.443 370.549 197.154C371.086 198.12 372.169 198.847 373.262 198.681C373.881 198.586 374.437 198.22 374.847 197.747C375.257 197.274 375.535 196.7 375.752 196.112C376.2 194.9 376.403 193.599 376.352 192.307Z" fill="#390A0A"/>
</g>
<mask id="mask69_644_593" style="mask-type:luminance" maskUnits="userSpaceOnUse" x="-12" y="-32" width="773" height="516">
<path d="M-12 -31.9999H761V483.333H-12V-31.9999Z" fill="white"/>
</mask>
<g mask="url(#mask69_644_593)">
<path d="M399.27 192.307C399.261 192.107 399.248 191.907 399.226 191.708C399.131 190.781 398.863 189.799 398.143 189.207C397.392 188.589 396.268 188.545 395.388 188.962C394.51 189.378 393.864 190.191 393.484 191.087C392.745 192.836 392.517 195.443 393.467 197.154C394.004 198.12 395.087 198.847 396.18 198.681C396.799 198.586 397.355 198.22 397.765 197.747C398.175 197.274 398.453 196.7 398.671 196.112C399.118 194.9 399.321 193.599 399.27 192.307Z" fill="#390A0A"/>
</g>
<mask id="mask70_644_593" style="mask-type:luminance" maskUnits="userSpaceOnUse" x="-12" y="-32" width="773" height="516">
<path d="M-12 -32H761V483.333H-12V-32Z" fill="white"/>
</mask>
<g mask="url(#mask70_644_593)">
<path d="M674.99 440.458V426.865C704.601 357.201 688.318 292.744 666.858 216.031C665.972 212.846 665.076 209.64 664.168 206.404C838.012 354.995 674.99 440.458 674.99 440.458Z" fill="#DBEFEA"/>
</g>
<mask id="mask71_644_593" style="mask-type:luminance" maskUnits="userSpaceOnUse" x="-12" y="-32" width="773" height="516">
<path d="M-12 -32H761V483.333H-12V-32Z" fill="white"/>
</mask>
<g mask="url(#mask71_644_593)">
<mask id="mask72_644_593" style="mask-type:luminance" maskUnits="userSpaceOnUse" x="666" y="216" width="71" height="220">
<path d="M666.858 216.031H736.135V435.501H666.858V216.031Z" fill="white"/>
</mask>
<g mask="url(#mask72_644_593)">
<path d="M674.99 435.501V426.864C704.601 357.2 688.318 292.744 666.858 216.031C800.474 338.278 705.025 415.825 674.99 435.501Z" fill="#DBEFEA"/>
</g>
</g>
<mask id="mask73_644_593" style="mask-type:luminance" maskUnits="userSpaceOnUse" x="-12" y="-32" width="773" height="516">
<path d="M-12 -32H761V483.333H-12V-32Z" fill="white"/>
</mask>
<g mask="url(#mask73_644_593)">
<path d="M674.993 440.463C674.993 440.463 686.333 434.515 699.839 423.038C698.079 417.444 695.512 412.097 692.705 406.969C690.449 402.847 688.01 398.831 685.589 394.804C683.055 405.41 679.578 416.076 674.993 426.867V440.463Z" fill="#390A0A"/>
</g>
<mask id="mask74_644_593" style="mask-type:luminance" maskUnits="userSpaceOnUse" x="-12" y="-32" width="773" height="516">
<path d="M-12 -32H761V483.333H-12V-32Z" fill="white"/>
</mask>
<g mask="url(#mask74_644_593)">
<path d="M610.429 111.724L607.313 107.465L592.779 87.6052C592.779 87.6052 600.609 65.1408 619.548 25.0397C620.63 22.7567 621.743 20.4006 622.898 18.0002C622.898 18.0002 646.842 70.9218 610.429 111.724Z" fill="#DBEFEA"/>
</g>
<mask id="mask75_644_593" style="mask-type:luminance" maskUnits="userSpaceOnUse" x="-12" y="-32" width="773" height="516">
<path d="M-12 -32H761V483.333H-12V-32Z" fill="white"/>
</mask>
<g mask="url(#mask75_644_593)">
<path d="M607.313 107.465L592.779 87.6054C592.779 87.6054 600.609 65.141 619.548 25.0398C624.392 40.5678 631.694 76.8195 607.313 107.465Z" fill="#FF9BD2"/>
</g>
<mask id="mask76_644_593" style="mask-type:luminance" maskUnits="userSpaceOnUse" x="-12" y="-32" width="773" height="516">
<path d="M-12 -31.9999H761V483.333H-12V-31.9999Z" fill="white"/>
</mask>
<g mask="url(#mask76_644_593)">
<path d="M591.732 105.436L586.845 103.444L564.057 94.1494C564.057 94.1494 558.949 70.914 554.055 26.8376C553.78 24.3258 553.492 21.7358 553.219 19.0859C553.219 19.0859 601.351 51.6014 591.732 105.436Z" fill="#DBEFEA"/>
</g>
<mask id="mask77_644_593" style="mask-type:luminance" maskUnits="userSpaceOnUse" x="-12" y="-32" width="773" height="516">
<path d="M-12 -32H761V483.333H-12V-32Z" fill="white"/>
</mask>
<g mask="url(#mask77_644_593)">
<path d="M586.845 103.444L564.058 94.1493C564.058 94.1493 558.95 70.914 554.056 26.8375C566.321 37.5214 591.544 64.564 586.845 103.444Z" fill="#FF9BD2"/>
</g>
<mask id="mask78_644_593" style="mask-type:luminance" maskUnits="userSpaceOnUse" x="-12" y="-32" width="773" height="516">
<path d="M-12 -31.9999H761V483.333H-12V-31.9999Z" fill="white"/>
</mask>
<g mask="url(#mask78_644_593)">
<path d="M623.727 372.509C622.084 367.974 619.045 363.994 614.879 361.563C588.709 346.286 556.136 405.622 627.476 432.208C627.476 432.208 580.252 410.283 575.777 434.403C575.19 437.568 577.726 440.464 580.945 440.464H639.92C644.022 440.464 646.879 436.388 645.48 432.532L623.727 372.509Z" fill="#DBEFEA"/>
</g>
<mask id="mask79_644_593" style="mask-type:luminance" maskUnits="userSpaceOnUse" x="-12" y="-32" width="773" height="516">
<path d="M-12 -32H761V483.333H-12V-32Z" fill="white"/>
</mask>
<g mask="url(#mask79_644_593)">
<mask id="mask80_644_593" style="mask-type:luminance" maskUnits="userSpaceOnUse" x="575" y="359" width="71" height="82">
<path d="M575.692 359.086H645.84V440.463H575.692V359.086Z" fill="white"/>
</mask>
<g mask="url(#mask80_644_593)">
<path d="M623.727 372.509C622.084 367.974 619.045 363.994 614.879 361.563C588.709 346.286 556.136 405.622 627.476 432.208C627.476 432.208 580.252 410.283 575.777 434.403C575.19 437.568 577.726 440.464 580.945 440.464H639.92C644.022 440.464 646.879 436.388 645.48 432.532L623.727 372.509Z" fill="#DBEFEA"/>
</g>
</g>
<mask id="mask81_644_593" style="mask-type:luminance" maskUnits="userSpaceOnUse" x="-12" y="-32" width="773" height="516">
<path d="M-12 -31.9999H761V483.333H-12V-31.9999Z" fill="white"/>
</mask>
<g mask="url(#mask81_644_593)">
<path d="M535.81 334.605L553.778 430.751C553.778 430.751 535.926 429.034 529.377 435.705C527.638 437.475 528.865 440.463 531.346 440.463H557.836C560.761 440.463 563.131 438.092 563.131 435.168V328.777L535.81 334.605Z" fill="#DBEFEA"/>
</g>
<mask id="mask82_644_593" style="mask-type:luminance" maskUnits="userSpaceOnUse" x="-12" y="-32" width="773" height="516">
<path d="M-12 -32H761V483.333H-12V-32Z" fill="white"/>
</mask>
<g mask="url(#mask82_644_593)">
<mask id="mask83_644_593" style="mask-type:luminance" maskUnits="userSpaceOnUse" x="535" y="328" width="29" height="55">
<path d="M535.81 328.778H563.13V382.484H535.81V328.778Z" fill="white"/>
</mask>
<g mask="url(#mask83_644_593)">
<path d="M555.351 377.013C557.908 378.887 560.521 380.684 563.13 382.485V328.777L535.809 334.605L541.376 364.401C545.378 369.259 550.292 373.306 555.351 377.013Z" fill="#DBEFEA"/>
</g>
</g>
<mask id="mask84_644_593" style="mask-type:luminance" maskUnits="userSpaceOnUse" x="-12" y="-32" width="773" height="516">
<path d="M-12 -32H761V483.333H-12V-32Z" fill="white"/>
</mask>
<g mask="url(#mask84_644_593)">
<path d="M665.972 440.458H621.284C592.991 397.067 554.94 370.414 531.616 339.535C518.237 321.839 515.156 298.422 523.288 277.788L543.345 226.801C540.602 227.584 537.902 228.512 535.264 229.584C534.758 229.79 534.265 229.996 533.769 230.213C533.985 229.563 534.223 228.914 534.47 228.275C536.871 221.978 540.552 216.165 545.209 211.279C541.953 213.248 538.861 215.495 535.975 217.979C538.5 210.65 542.18 203.724 546.838 197.53C548.611 195.17 550.569 192.872 553.063 191.284C549.828 191.831 546.684 192.861 543.757 194.345C543.932 193.995 544.118 193.644 544.302 193.304C544.458 193.016 544.623 192.738 544.798 192.47C549.239 185.121 557.104 180.339 563.803 174.783L563.967 174.361C545.364 175.886 529.328 175.154 516.29 172.207C509.641 170.722 503.777 168.651 498.758 166.023C487.514 160.127 480.495 151.418 478.392 139.988C476.794 131.299 482.061 123.435 489.708 120.642C490.09 120.663 490.472 120.704 490.853 120.756C504.262 122.57 520.504 122.807 529.018 122.776C530.461 122.776 531.832 122.405 533.038 121.735C534.265 121.745 535.388 121.745 536.408 121.745C539.861 121.745 542.953 119.622 544.231 116.406C547.518 108.006 554.62 91.9177 562.854 85.1565C566.451 82.1985 570.42 80.2299 574.501 79.1374C591.178 74.6849 609.832 84.9298 613.688 103.533L679.898 423.37C681.721 432.192 674.98 440.458 665.972 440.458Z" fill="#DBEFEA"/>
</g>
<mask id="mask85_644_593" style="mask-type:luminance" maskUnits="userSpaceOnUse" x="-12" y="-32" width="773" height="516">
<path d="M-12 -32H761V483.333H-12V-32Z" fill="white"/>
</mask>
<g mask="url(#mask85_644_593)">
<mask id="mask86_644_593" style="mask-type:luminance" maskUnits="userSpaceOnUse" x="478" y="79" width="195" height="362">
<path d="M478.105 79.1327H672.808V440.458H478.105V79.1327Z" fill="white"/>
</mask>
<g mask="url(#mask86_644_593)">
<path d="M672.508 424.39L606.298 104.554C603.009 88.6713 588.93 78.88 574.501 79.1376C570.42 80.2301 566.452 82.1987 562.854 85.1567C554.62 91.9179 547.518 108.007 544.231 116.407C542.953 119.622 539.861 121.745 536.408 121.745H536.194C534.475 121.745 532.78 122.071 531.117 122.507C530.443 122.683 529.739 122.776 529.018 122.776C520.505 122.807 504.262 122.57 490.853 120.756C490.472 120.704 490.09 120.663 489.709 120.643C482.061 123.436 476.794 131.3 478.392 139.988C480.495 151.418 487.514 160.127 498.758 166.023C503.777 168.651 509.641 170.723 516.29 172.207C529.328 175.155 545.365 175.886 563.967 174.361L563.951 174.405C567.189 173.664 570.274 172.345 573.293 170.97C575.188 170.107 577.115 169.321 579.01 168.456C580.882 167.602 582.752 166.725 584.716 166.099C587.468 165.221 590.8 164.805 593.469 166.185C595.593 167.281 596.428 169.508 595.812 171.777C594.924 175.047 592.094 177.667 589.563 179.742C586.723 182.072 583.552 183.969 580.229 185.524C573.507 188.669 566.344 190.258 559.08 191.567C556.425 192.046 553.73 192.49 551.02 192.838C549.45 194.219 548.096 195.857 546.838 197.53C542.18 203.725 538.5 210.651 535.975 217.979C538.861 215.495 541.953 213.248 545.209 211.279C540.552 216.165 536.871 221.978 534.47 228.275C534.223 228.914 533.986 229.563 533.77 230.213C534.265 229.996 534.759 229.789 535.264 229.584C537.902 228.512 540.603 227.585 543.345 226.801L523.288 277.788C515.156 298.422 518.237 321.839 531.616 339.536C554.94 370.414 592.992 397.067 621.284 440.458H663.871C670.034 438.005 673.95 431.369 672.508 424.39Z" fill="#DBEFEA"/>
</g>
</g>
<mask id="mask87_644_593" style="mask-type:luminance" maskUnits="userSpaceOnUse" x="-12" y="-32" width="773" height="516">
<path d="M-12 -32H761V483.333H-12V-32Z" fill="white"/>
</mask>
<g mask="url(#mask87_644_593)">
<path d="M679.188 430.161C678.133 428.582 676.995 427.061 675.919 425.497C674.609 423.59 673.289 421.69 671.963 419.793C666.649 412.196 661.234 404.67 655.9 397.088C653.419 393.56 650.882 390.053 648.522 386.442C647.011 384.131 645.724 381.685 644.463 379.231C642.228 374.876 640.066 370.017 636.194 366.842C631.809 363.246 625.87 363.546 620.726 365.143C615.971 366.621 611.69 369.467 609.217 373.875C606.951 377.914 606.411 382.672 606.757 387.228C607.142 392.282 608.59 397.264 610.591 401.904C612.509 406.348 614.965 410.614 618.008 414.385C618.29 414.736 618.113 415.233 617.643 415.265C615.357 415.419 613.075 415.657 610.82 416.071C608.74 416.454 606.6 416.984 604.59 417.793C610.386 424.857 616.003 432.367 621.279 440.46H665.976C672.4 440.46 677.658 436.238 679.486 430.617C679.385 430.466 679.289 430.311 679.188 430.161Z" fill="#390A0A"/>
</g>
<mask id="mask88_644_593" style="mask-type:luminance" maskUnits="userSpaceOnUse" x="-12" y="-32" width="773" height="516">
<path d="M-12 -31.9999H761V483.333H-12V-31.9999Z" fill="white"/>
</mask>
<g mask="url(#mask88_644_593)">
<path d="M515.83 133.91C514.129 133.91 514.127 136.553 515.83 136.553C517.53 136.553 517.533 133.91 515.83 133.91Z" fill="#390A0A"/>
</g>
<mask id="mask89_644_593" style="mask-type:luminance" maskUnits="userSpaceOnUse" x="-12" y="-32" width="773" height="516">
<path d="M-12 -32H761V483.333H-12V-32Z" fill="white"/>
</mask>
<g mask="url(#mask89_644_593)">
<path d="M518.265 130.403C516.566 130.403 516.562 133.046 518.265 133.046C519.965 133.046 519.968 130.403 518.265 130.403Z" fill="#390A0A"/>
</g>
<mask id="mask90_644_593" style="mask-type:luminance" maskUnits="userSpaceOnUse" x="-12" y="-32" width="773" height="516">
<path d="M-12 -32H761V483.333H-12V-32Z" fill="white"/>
</mask>
<g mask="url(#mask90_644_593)">
<path d="M520.799 134.397C519.098 134.397 519.096 137.04 520.799 137.04C522.498 137.04 522.501 134.397 520.799 134.397Z" fill="#390A0A"/>
</g>
<mask id="mask91_644_593" style="mask-type:luminance" maskUnits="userSpaceOnUse" x="-12" y="-32" width="773" height="516">
<path d="M-12 -31.9999H761V483.333H-12V-31.9999Z" fill="white"/>
</mask>
<g mask="url(#mask91_644_593)">
<path d="M587.838 138.2C585.87 137.641 583.837 137.768 582.034 138.441C586.885 144.232 585.984 153.098 579.697 157.632C573.067 162.42 564.811 158.966 557.433 159.118C549.252 159.283 542.586 165.062 535.333 168.111C528.564 170.968 521.261 172.314 513.971 172.212C508.204 170.917 503.112 169.126 498.755 166.84C504 168.567 509.525 169.419 515.063 169.379C522.137 169.329 529.249 167.844 535.676 164.859C542.127 161.862 548.048 157.264 555.299 156.413C558.918 155.981 562.525 156.603 566.12 157.022C569.626 157.441 573.448 157.759 576.712 156.121C582.911 152.996 584.053 144.842 579.493 139.901C578.275 140.879 577.284 142.187 576.712 143.762C576.446 144.487 575.748 144.969 574.96 144.753C574.262 144.563 573.689 143.724 573.956 143.001C574.947 140.295 576.801 137.959 579.316 136.523C582.11 134.936 585.514 134.568 588.588 135.444C590.366 135.952 589.604 138.708 587.838 138.2Z" fill="#390A0A"/>
</g>
<mask id="mask92_644_593" style="mask-type:luminance" maskUnits="userSpaceOnUse" x="-12" y="-32" width="773" height="516">
<path d="M-12 -32H761V483.333H-12V-32Z" fill="white"/>
</mask>
<g mask="url(#mask92_644_593)">
<path d="M558.633 116.651C558.623 116.434 558.609 116.216 558.586 115.999C558.482 114.988 558.19 113.919 557.406 113.274C556.588 112.601 555.363 112.553 554.405 113.007C553.447 113.46 552.743 114.347 552.331 115.323C551.525 117.227 551.276 120.068 552.311 121.931C552.896 122.984 554.077 123.775 555.266 123.594C555.941 123.491 556.546 123.092 556.994 122.578C557.441 122.062 557.744 121.437 557.979 120.797C558.467 119.475 558.689 118.058 558.633 116.651Z" fill="#390A0A"/>
</g>
<mask id="mask93_644_593" style="mask-type:luminance" maskUnits="userSpaceOnUse" x="-12" y="-32" width="773" height="516">
<path d="M-12 -32H761V483.333H-12V-32Z" fill="white"/>
</mask>
<g mask="url(#mask93_644_593)">
<path d="M583.601 116.651C583.592 116.434 583.577 116.216 583.554 115.999C583.451 114.988 583.159 113.919 582.375 113.274C581.556 112.601 580.331 112.553 579.374 113.007C578.416 113.46 577.712 114.347 577.3 115.323C576.494 117.227 576.244 120.068 577.28 121.931C577.865 122.984 579.046 123.775 580.235 123.594C580.91 123.491 581.515 123.092 581.963 122.578C582.41 122.062 582.713 121.437 582.948 120.797C583.435 119.475 583.658 118.058 583.601 116.651Z" fill="#390A0A"/>
</g>
<mask id="mask94_644_593" style="mask-type:luminance" maskUnits="userSpaceOnUse" x="-12" y="-32" width="773" height="516">
<path d="M-12 -32H761V483.333H-12V-32Z" fill="white"/>
</mask>
<g mask="url(#mask94_644_593)">
<path d="M639.721 326.353C639.65 326.394 639.546 326.436 639.443 326.498C623.395 334.62 610.78 348.203 603.771 364.767L577.087 427.833C584.334 427.833 589.888 430.584 593.764 433.522C596.702 435.749 595.062 440.458 591.374 440.458H568.636C565.204 440.458 562.608 437.346 563.225 433.965L590.682 284.106L635.744 322.921L639.721 326.353Z" fill="#DBEFEA"/>
</g>
<mask id="mask95_644_593" style="mask-type:luminance" maskUnits="userSpaceOnUse" x="-12" y="-32" width="773" height="516">
<path d="M-12 -32H761V483.333H-12V-32Z" fill="white"/>
</mask>
<g mask="url(#mask95_644_593)">
<mask id="mask96_644_593" style="mask-type:luminance" maskUnits="userSpaceOnUse" x="563" y="284" width="73" height="157">
<path d="M563.134 284.107H635.743V440.458H563.134V284.107Z" fill="white"/>
</mask>
<g mask="url(#mask96_644_593)">
<path d="M590.683 284.106L635.745 322.921C620.584 331.547 606.947 348.976 600.268 364.767L573.584 427.832C580.83 427.832 586.385 430.584 590.261 433.523C593.198 435.749 591.56 440.458 587.87 440.458H568.637C565.205 440.458 562.609 437.346 563.226 433.965L590.683 284.106Z" fill="#DBEFEA"/>
</g>
</g>
<mask id="mask97_644_593" style="mask-type:luminance" maskUnits="userSpaceOnUse" x="-12" y="-32" width="773" height="516">
<path d="M-12 -32H761V483.333H-12V-32Z" fill="white"/>
</mask>
<g mask="url(#mask97_644_593)">
<path d="M674.99 440.458H616.016C612.8 440.458 610.264 437.572 610.853 434.398C612.315 426.503 618.356 423.545 625.828 423.133C631.621 422.813 638.269 424.03 644.298 425.658C648.369 426.771 652.162 428.059 655.222 429.214C602.225 405.333 617.8 361.664 639.237 359.201C642.742 358.788 646.411 359.489 649.956 361.561C654.119 363.994 657.16 367.971 658.8 372.506L680.556 432.533C681.947 436.387 679.092 440.458 674.99 440.458Z" fill="#DBEFEA"/>
</g>
<mask id="mask98_644_593" style="mask-type:luminance" maskUnits="userSpaceOnUse" x="-12" y="-32" width="773" height="516">
<path d="M-12 -32H761V483.333H-12V-32Z" fill="white"/>
</mask>
<g mask="url(#mask98_644_593)">
<mask id="mask99_644_593" style="mask-type:luminance" maskUnits="userSpaceOnUse" x="610" y="359" width="68" height="82">
<path d="M610.768 359.201H677.114V440.458H610.768V359.201Z" fill="white"/>
</mask>
<g mask="url(#mask99_644_593)">
<path d="M671.188 440.458H616.016C612.801 440.458 610.265 437.572 610.853 434.398C612.316 426.503 618.356 423.545 625.828 423.133C636.452 421.931 652.162 428.059 655.223 429.214C602.226 405.333 617.799 361.664 639.237 359.2C641.546 359.468 643.865 360.231 646.153 361.561C650.317 363.994 653.357 367.971 654.996 372.506L676.753 432.533C678.155 436.387 675.29 440.458 671.188 440.458Z" fill="#DBEFEA"/>
</g>
</g>
<mask id="mask100_644_593" style="mask-type:luminance" maskUnits="userSpaceOnUse" x="-12" y="-32" width="773" height="516">
<path d="M-12 -31.9999H761V483.333H-12V-31.9999Z" fill="white"/>
</mask>
<g mask="url(#mask100_644_593)">
<path d="M510.498 126.866C510.498 133.971 501.884 144.608 492.163 144.608C482.441 144.608 475.292 133.971 475.292 126.866C475.292 119.763 483.172 114.005 492.895 114.005C502.617 114.005 510.498 119.763 510.498 126.866Z" fill="#390A0A"/>
</g>
<mask id="mask101_644_593" style="mask-type:luminance" maskUnits="userSpaceOnUse" x="-12" y="-32" width="773" height="516">
<path d="M-12 -32H761V483.333H-12V-32Z" fill="white"/>
</mask>
<g mask="url(#mask101_644_593)">
<path d="M536.19 390.113C536.08 389.688 543.844 397.615 537.477 406.179C536.48 407.521 534.456 407.498 533.493 406.133C532.904 405.298 532.89 404.192 533.463 403.348C535.027 401.044 537.72 395.982 536.19 390.113Z" fill="#F4A165"/>
</g>
<mask id="mask102_644_593" style="mask-type:luminance" maskUnits="userSpaceOnUse" x="-12" y="-32" width="773" height="516">
<path d="M-12 -32H761V483.333H-12V-32Z" fill="white"/>
</mask>
<g mask="url(#mask102_644_593)">
<mask id="mask103_644_593" style="mask-type:luminance" maskUnits="userSpaceOnUse" x="533" y="401" width="6" height="7">
<path d="M533.041 401.34H538.106V407.171H533.041V401.34Z" fill="white"/>
</mask>
<g mask="url(#mask103_644_593)">
<path d="M537.152 403.849C536.47 402.936 535.636 402.003 534.654 401.34C534.241 402.138 533.822 402.819 533.463 403.349C532.889 404.193 532.903 405.299 533.492 406.133C534.456 407.498 536.479 407.521 537.476 406.179C537.706 405.87 537.911 405.562 538.106 405.255C537.805 404.773 537.488 404.3 537.152 403.849Z" fill="#F4A165"/>
</g>
</g>
<mask id="mask104_644_593" style="mask-type:luminance" maskUnits="userSpaceOnUse" x="-12" y="-32" width="773" height="516">
<path d="M-12 -31.9999H761V483.333H-12V-31.9999Z" fill="white"/>
</mask>
<g mask="url(#mask104_644_593)">
<path d="M455.234 380.993L481.878 372.925C483.949 364.637 498.836 343.918 498.836 343.918C458.09 348.522 455.234 380.993 455.234 380.993Z" fill="#F4A165"/>
</g>
<mask id="mask105_644_593" style="mask-type:luminance" maskUnits="userSpaceOnUse" x="-12" y="-32" width="773" height="516">
<path d="M-12 -32H761V483.333H-12V-32Z" fill="white"/>
</mask>
<g mask="url(#mask105_644_593)">
<path d="M498.84 343.916C498.84 343.916 498.088 344.958 496.902 346.669C492.811 352.573 483.483 366.487 481.875 372.92L461.045 379.227L455.232 380.99C455.232 380.99 458.087 348.524 498.84 343.916Z" fill="#F4A165"/>
</g>
<mask id="mask106_644_593" style="mask-type:luminance" maskUnits="userSpaceOnUse" x="-12" y="-32" width="773" height="516">
<path d="M-12 -32H761V483.333H-12V-32Z" fill="white"/>
</mask>
<g mask="url(#mask106_644_593)">
<g opacity="0.25">
<mask id="mask107_644_593" style="mask-type:luminance" maskUnits="userSpaceOnUse" x="461" y="346" width="36" height="34">
<path d="M461.046 346.668H496.903V379.227H461.046V346.668Z" fill="white"/>
</mask>
<g mask="url(#mask107_644_593)">
<path d="M496.903 346.669C492.811 352.573 483.482 366.487 481.876 372.92L461.046 379.227C462.901 371.466 470.126 352.46 496.903 346.669Z" fill="#F4A165"/>
</g>
</g>
</g>
<mask id="mask108_644_593" style="mask-type:luminance" maskUnits="userSpaceOnUse" x="-12" y="-32" width="773" height="516">
<path d="M-12 -32H761V483.333H-12V-32Z" fill="white"/>
</mask>
<g mask="url(#mask108_644_593)">
<path d="M505.625 388.649L503.729 386.484L490.741 371.655C490.741 371.655 499.64 348.833 509.27 342.617C509.602 343.432 509.917 344.236 510.214 345.022C519.353 368.603 518.77 383.949 505.625 388.649Z" fill="#F4A165"/>
</g>
<mask id="mask109_644_593" style="mask-type:luminance" maskUnits="userSpaceOnUse" x="-12" y="-32" width="773" height="516">
<path d="M-12 -32H761V483.333H-12V-32Z" fill="white"/>
</mask>
<g mask="url(#mask109_644_593)">
<path d="M505.626 388.649L503.729 386.484C501.195 366.503 502.933 352.126 510.214 345.022C519.353 368.603 518.771 383.949 505.626 388.649Z" fill="#FF9BD2"/>
</g>
<mask id="mask110_644_593" style="mask-type:luminance" maskUnits="userSpaceOnUse" x="-12" y="-32" width="773" height="516">
<path d="M-12 -32H761V483.333H-12V-32Z" fill="white"/>
</mask>
<g mask="url(#mask110_644_593)">
<path d="M485.27 419.233C481.598 420.584 479.993 424.886 481.886 428.313C483.399 431.053 485.301 435.242 486.258 437.395C486.66 438.301 486.84 439.283 486.793 440.273L486.312 450.136C486.312 450.136 481.47 446.881 478.918 451.28C478.343 452.269 479.097 453.512 480.24 453.512H487.96C488.776 453.512 489.468 452.92 489.598 452.115C490.263 447.982 492.392 435.918 495.009 433.049C495.009 433.049 494.214 429.313 493.838 424.714C493.494 420.504 489.236 417.775 485.271 419.233H485.27Z" fill="#F4A165"/>
</g>
<mask id="mask111_644_593" style="mask-type:luminance" maskUnits="userSpaceOnUse" x="-12" y="-32" width="773" height="516">
<path d="M-12 -32H761V483.333H-12V-32Z" fill="white"/>
</mask>
<g mask="url(#mask111_644_593)">
<path d="M541.13 442.479L540.644 452.198C540.604 452.93 539.995 453.507 539.263 453.507H528.762C527.69 453.507 527.092 452.24 527.793 451.425C532.481 445.911 537.593 451.919 537.409 451.363C537.254 450.9 537.336 445.839 537.377 443.427V443.355C537.377 442.572 537.037 441.84 536.45 441.314C535.945 440.861 535.296 440.634 534.625 440.624C533.74 440.613 532.895 440.562 532.09 440.469C519.28 439.15 517.454 429.368 517.454 429.368C505.942 438.222 495.007 443.201 485.926 435.81C482.628 433.121 480.578 429.225 479.752 425.051C478.362 417.979 475.671 411.167 474.198 407.735C473.568 406.271 473.157 405.427 473.157 405.427L497.409 401.839C500.623 407.993 505.045 408.91 510.672 404.612C514.415 401.757 518.929 399.975 523.638 400.087C526.371 400.159 528.896 400.767 531.173 401.88C539.666 406.025 542.521 416.608 538.027 424.917C534.255 431.884 534.956 435.202 534.956 435.202L540.294 440.366C540.862 440.922 541.171 441.685 541.13 442.479Z" fill="#F4A165"/>
</g>
<mask id="mask112_644_593" style="mask-type:luminance" maskUnits="userSpaceOnUse" x="-12" y="-32" width="773" height="516">
<path d="M-12 -32H761V483.333H-12V-32Z" fill="white"/>
</mask>
<g mask="url(#mask112_644_593)">
<g opacity="0.25">
<mask id="mask113_644_593" style="mask-type:luminance" maskUnits="userSpaceOnUse" x="474" y="402" width="65" height="39">
<path d="M474.197 402.824H538.267V440.469H474.197V402.824Z" fill="white"/>
</mask>
<g mask="url(#mask113_644_593)">
<path d="M536.193 427.513C533.78 431.935 533.152 434.903 533.018 436.502C532.914 437.81 532.678 439.098 532.163 440.304C532.141 440.356 532.122 440.418 532.091 440.469C519.28 439.15 517.454 429.369 517.454 429.369C505.942 438.222 495.007 443.201 485.926 435.81C482.628 433.12 480.578 429.224 479.753 425.05C478.362 417.98 475.671 411.167 474.198 407.736L495.492 404.581C498.78 410.858 503.324 411.693 509.116 407.086C511.673 405.055 514.642 403.561 517.868 403.076C522.092 402.448 525.948 403.005 529.256 404.622C537.676 408.725 540.676 419.299 536.193 427.513Z" fill="#F4A165"/>
</g>
</g>
</g>
<mask id="mask114_644_593" style="mask-type:luminance" maskUnits="userSpaceOnUse" x="-12" y="-32" width="773" height="516">
<path d="M-12 -32H761V483.333H-12V-32Z" fill="white"/>
</mask>
<g mask="url(#mask114_644_593)">
<mask id="mask115_644_593" style="mask-type:luminance" maskUnits="userSpaceOnUse" x="473" y="403" width="20" height="16">
<path d="M473.156 403.027H492.556V418.764H473.156V403.027Z" fill="white"/>
</mask>
<g mask="url(#mask115_644_593)">
<path d="M478.685 417.793C479.591 416.639 481.111 415.956 482.439 415.419C484.699 414.507 487.201 414.12 489.307 412.846C491.373 411.597 492.917 408.957 492.483 406.486C492.191 404.82 490.858 403.728 489.395 403.027L473.156 405.426C473.156 405.426 476.011 411.343 478.194 418.764C478.292 418.437 478.433 418.113 478.685 417.793Z" fill="#F4A165"/>
</g>
</g>
<mask id="mask116_644_593" style="mask-type:luminance" maskUnits="userSpaceOnUse" x="-12" y="-32" width="773" height="516">
<path d="M-12 -32H761V483.333H-12V-32Z" fill="white"/>
</mask>
<g mask="url(#mask116_644_593)">
<mask id="mask117_644_593" style="mask-type:luminance" maskUnits="userSpaceOnUse" x="517" y="416" width="7" height="15">
<path d="M517.217 416.643H523.789V430.372H517.217V416.643Z" fill="white"/>
</mask>
<g mask="url(#mask117_644_593)">
<path d="M522.577 416.816C518.866 419.939 516.835 424.877 517.276 429.708C517.358 430.589 518.745 430.597 518.664 429.708C518.252 425.2 520.095 420.712 523.558 417.798C524.242 417.222 523.256 416.244 522.577 416.816Z" fill="#F4A165"/>
</g>
</g>
<mask id="mask118_644_593" style="mask-type:luminance" maskUnits="userSpaceOnUse" x="-12" y="-32" width="773" height="516">
<path d="M-12 -32H761V483.333H-12V-32Z" fill="white"/>
</mask>
<g mask="url(#mask118_644_593)">
<path d="M496.261 419.233C492.589 420.584 490.983 424.886 492.875 428.313C494.389 431.053 496.291 435.242 497.247 437.395C497.649 438.301 497.83 439.283 497.782 440.273L497.303 450.136C497.303 450.136 492.46 446.881 489.908 451.28C489.334 452.269 490.087 453.512 491.23 453.512H498.95C499.765 453.512 500.458 452.92 500.588 452.115C501.253 447.982 503.382 435.918 505.999 433.049C505.999 433.049 505.204 429.313 504.829 424.714C504.485 420.504 500.226 417.775 496.261 419.233Z" fill="#F4A165"/>
</g>
<mask id="mask119_644_593" style="mask-type:luminance" maskUnits="userSpaceOnUse" x="-12" y="-32" width="773" height="516">
<path d="M-12 -32H761V483.333H-12V-32Z" fill="white"/>
</mask>
<g mask="url(#mask119_644_593)">
<path d="M508.045 387.297C507.148 407.148 485.329 408.837 485.329 408.837C481.207 409.673 477.136 410.425 473.24 410.848C470.313 411.167 467.488 411.312 464.829 411.167C462.057 411.033 459.45 410.58 457.09 409.714C452.76 408.116 449.235 405.118 446.937 400.006C445.835 397.563 447.669 394.79 450.349 394.79H455.76C454.646 392.461 454.028 389.936 454.028 387.297C454.028 376.124 465.015 366.952 478.97 366.138C479.65 366.086 480.341 366.065 481.031 366.065C495.956 366.065 508.572 375.589 508.045 387.297Z" fill="#F4A165"/>
</g>
<mask id="mask120_644_593" style="mask-type:luminance" maskUnits="userSpaceOnUse" x="-12" y="-32" width="773" height="516">
<path d="M-12 -32H761V483.333H-12V-32Z" fill="white"/>
</mask>
<g mask="url(#mask120_644_593)">
<g opacity="0.25">
<mask id="mask121_644_593" style="mask-type:luminance" maskUnits="userSpaceOnUse" x="446" y="366" width="58" height="46">
<path d="M446.611 366.137H503.877V411.167H446.611V366.137Z" fill="white"/>
</mask>
<g mask="url(#mask121_644_593)">
<path d="M503.861 387.297C502.964 407.148 481.145 408.837 481.145 408.837C477.023 409.673 472.951 410.424 469.054 410.848C467.613 411.003 466.211 411.115 464.83 411.167C462.056 411.033 459.45 410.58 457.089 409.714C452.761 408.116 449.236 405.118 446.937 400.005C445.835 397.563 447.668 394.79 450.349 394.79H455.76C454.647 392.461 454.027 389.936 454.027 387.297C454.027 376.124 465.015 366.952 478.971 366.138C492.946 366.983 504.366 376.146 503.861 387.297Z" fill="#F4A165"/>
</g>
</g>
</g>
<mask id="mask122_644_593" style="mask-type:luminance" maskUnits="userSpaceOnUse" x="-12" y="-32" width="773" height="516">
<path d="M-12 -32H761V483.333H-12V-32Z" fill="white"/>
</mask>
<g mask="url(#mask122_644_593)">
<path d="M491.653 401.292C491.524 401.209 491.363 401.224 491.217 401.23C491.028 401.24 490.838 401.26 490.65 401.287C489.803 401.408 488.987 401.712 488.263 402.17C488.198 402.21 488.157 402.311 488.207 402.381C488.252 402.442 488.309 402.494 488.358 402.552C488.36 402.571 488.352 402.589 488.364 402.609C488.708 403.232 489.156 403.797 489.69 404.267C489.817 404.38 489.949 404.486 490.085 404.587C490.23 404.697 490.386 404.824 490.563 404.877C490.911 404.978 491.125 404.725 491.263 404.442C491.601 403.746 491.797 402.983 491.838 402.21C491.853 401.936 491.928 401.468 491.653 401.292Z" fill="white"/>
</g>
<mask id="mask123_644_593" style="mask-type:luminance" maskUnits="userSpaceOnUse" x="-12" y="-32" width="773" height="516">
<path d="M-12 -32H761V483.333H-12V-32Z" fill="white"/>
</mask>
<g mask="url(#mask123_644_593)">
<path d="M488.49 402.289C488.361 402.207 488.2 402.221 488.054 402.227C487.865 402.238 487.675 402.257 487.487 402.284C486.639 402.406 485.824 402.71 485.101 403.166C485.035 403.208 484.993 403.309 485.044 403.379C485.09 403.44 485.146 403.491 485.194 403.55C485.198 403.568 485.189 403.586 485.201 403.607C485.545 404.229 485.993 404.795 486.527 405.265C486.655 405.377 486.787 405.483 486.922 405.584C487.067 405.695 487.223 405.82 487.4 405.874C487.748 405.975 487.963 405.722 488.1 405.439C488.439 404.743 488.634 403.981 488.676 403.208C488.689 402.933 488.765 402.465 488.49 402.289Z" fill="white"/>
</g>
<mask id="mask124_644_593" style="mask-type:luminance" maskUnits="userSpaceOnUse" x="-12" y="-32" width="773" height="516">
<path d="M-12 -32H761V483.333H-12V-32Z" fill="white"/>
</mask>
<g mask="url(#mask124_644_593)">
<path d="M485.839 403.914C485.71 403.831 485.55 403.845 485.403 403.852C485.215 403.861 485.025 403.882 484.836 403.909C483.989 404.03 483.174 404.334 482.449 404.791C482.384 404.832 482.343 404.933 482.394 405.003C482.439 405.064 482.496 405.116 482.544 405.174C482.547 405.193 482.539 405.21 482.55 405.23C482.895 405.854 483.343 406.418 483.877 406.889C484.004 407.001 484.136 407.108 484.272 407.209C484.417 407.319 484.572 407.445 484.75 407.498C485.097 407.6 485.311 407.347 485.45 407.064C485.788 406.367 485.983 405.605 486.026 404.832C486.039 404.558 486.114 404.089 485.839 403.914Z" fill="white"/>
</g>
<mask id="mask125_644_593" style="mask-type:luminance" maskUnits="userSpaceOnUse" x="-12" y="-32" width="773" height="516">
<path d="M-12 -32H761V483.333H-12V-32Z" fill="white"/>
</mask>
<g mask="url(#mask125_644_593)">
<path d="M456.727 397.053C456.727 399.62 453.615 403.464 450.103 403.464C446.591 403.464 444.008 399.62 444.008 397.053C444.008 394.487 446.856 392.406 450.367 392.406C453.88 392.406 456.727 394.487 456.727 397.053Z" fill="#390A0A"/>
</g>
<mask id="mask126_644_593" style="mask-type:luminance" maskUnits="userSpaceOnUse" x="-12" y="-32" width="773" height="516">
<path d="M-12 -32H761V483.333H-12V-32Z" fill="white"/>
</mask>
<g mask="url(#mask126_644_593)">
<path d="M458.987 401.287C458.093 401.287 458.092 402.675 458.987 402.675C459.88 402.675 459.881 401.287 458.987 401.287Z" fill="#F4A165"/>
</g>
<mask id="mask127_644_593" style="mask-type:luminance" maskUnits="userSpaceOnUse" x="-12" y="-32" width="773" height="516">
<path d="M-12 -32H761V483.333H-12V-32Z" fill="white"/>
</mask>
<g mask="url(#mask127_644_593)">
<path d="M460.345 397.909C460.313 397.792 460.252 397.688 460.167 397.602C460.12 397.566 460.073 397.531 460.026 397.494C459.918 397.431 459.802 397.4 459.677 397.399H459.65C459.554 397.396 459.466 397.415 459.383 397.459C459.297 397.487 459.222 397.535 459.161 397.602C459.093 397.666 459.044 397.74 459.016 397.826C458.973 397.908 458.952 397.998 458.957 398.094L458.982 398.277C459.014 398.396 459.074 398.497 459.161 398.583C459.207 398.619 459.253 398.656 459.3 398.692C459.409 398.754 459.525 398.787 459.65 398.787H459.677C459.772 398.79 459.86 398.771 459.943 398.727C460.029 398.7 460.105 398.651 460.167 398.583C460.235 398.521 460.282 398.446 460.311 398.359C460.354 398.277 460.373 398.188 460.37 398.094C460.362 398.032 460.354 397.971 460.345 397.909Z" fill="#F4A165"/>
</g>
<mask id="mask128_644_593" style="mask-type:luminance" maskUnits="userSpaceOnUse" x="-12" y="-32" width="773" height="516">
<path d="M-12 -32H761V483.333H-12V-32Z" fill="white"/>
</mask>
<g mask="url(#mask128_644_593)">
<path d="M461.952 401.441C461.059 401.441 461.058 402.828 461.952 402.828C462.845 402.828 462.847 401.441 461.952 401.441Z" fill="#F4A165"/>
</g>
<mask id="mask129_644_593" style="mask-type:luminance" maskUnits="userSpaceOnUse" x="-12" y="-32" width="773" height="516">
<path d="M-12 -32H761V483.333H-12V-32Z" fill="white"/>
</mask>
<g mask="url(#mask129_644_593)">
<path d="M468.665 388.543C468.659 388.405 468.649 388.268 468.636 388.131C468.57 387.492 468.385 386.816 467.89 386.409C467.372 385.983 466.598 385.952 465.993 386.24C465.387 386.526 464.943 387.087 464.682 387.704C464.173 388.907 464.015 390.704 464.67 391.881C465.039 392.546 465.786 393.046 466.538 392.932C466.964 392.866 467.346 392.615 467.629 392.289C467.912 391.963 468.103 391.568 468.252 391.163C468.56 390.329 468.701 389.432 468.665 388.543Z" fill="#390A0A"/>
</g>
<mask id="mask130_644_593" style="mask-type:luminance" maskUnits="userSpaceOnUse" x="-12" y="-32" width="773" height="516">
<path d="M-12 -32H761V483.333H-12V-32Z" fill="white"/>
</mask>
<g mask="url(#mask130_644_593)">
<path d="M484.447 388.543C484.44 388.405 484.43 388.268 484.418 388.131C484.352 387.492 484.167 386.816 483.67 386.409C483.153 385.983 482.38 385.952 481.774 386.24C481.169 386.526 480.725 387.087 480.463 387.704C479.955 388.907 479.796 390.704 480.451 391.881C480.82 392.546 481.567 393.046 482.319 392.932C482.746 392.866 483.128 392.615 483.411 392.289C483.694 391.963 483.885 391.568 484.034 391.163C484.341 390.329 484.482 389.432 484.447 388.543Z" fill="#390A0A"/>
</g>
<mask id="mask131_644_593" style="mask-type:luminance" maskUnits="userSpaceOnUse" x="-12" y="-32" width="773" height="516">
<path d="M-12 -32H761V483.333H-12V-32Z" fill="white"/>
</mask>
<g mask="url(#mask131_644_593)">
<path d="M497.966 394.605C497.78 394.914 497.327 395.057 497.017 394.852C496.461 394.491 495.864 394.337 495.266 394.337C496.141 397.408 494.564 400.562 491.647 401.86C489.885 402.654 487.917 402.86 486.185 403.716C484.432 404.591 483.021 405.983 481.464 407.137C478.95 409.003 476.167 410.177 473.24 410.848C467.263 411.508 461.717 411.415 457.09 409.714C457.224 409.611 457.399 409.57 457.594 409.601C465.17 410.692 473.55 410.92 480.135 406.394C481.578 405.396 482.857 404.169 484.32 403.211C485.691 402.304 487.174 401.819 488.742 401.375C490.288 400.943 491.957 400.49 493.029 399.191C494.079 397.913 494.347 396.222 493.905 394.656C493.545 394.841 493.215 395.079 492.925 395.398C492.678 395.687 492.204 395.656 491.946 395.398C491.669 395.13 491.7 394.697 491.946 394.418C493.399 392.801 495.883 392.471 497.719 393.656C498.028 393.852 498.161 394.264 497.966 394.605Z" fill="#390A0A"/>
</g>
</svg>
